<?xml version="1.0" encoding="utf-8"?>
<!-- Generator: Adobe Illustrator 22.0.0, SVG Export Plug-In . SVG Version: 6.00 Build 0)  -->
<svg version="1.1" id="Ñëîé_1" xmlns="http://www.w3.org/2000/svg" xmlns:xlink="http://www.w3.org/1999/xlink" x="0px" y="0px"
	 viewBox="0 0 600 450" style="enable-background:new 0 0 600 450;" xml:space="preserve">
<style type="text/css">
	.st0{fill:#FDD762;}
	.st1{fill:#FF2C9C;}
	.st2{opacity:0.5;fill:#173D7A;}
	.st3{fill:#173D7A;}
	.st4{fill:#FFC2B0;}
	.st5{fill:#8A3535;}
	.st6{fill:#FFFFFF;}
	.st7{fill:#EA9C92;}
	.st8{fill:#D8892B;}
	.st9{fill:#983BE9;}
	.st10{fill:#D29FFF;}
	.st11{fill:#B45EF4;}
	.st12{fill:#721BD5;}
	.st13{fill:#8A2AE3;}
	.st14{fill:#95D359;}
	.st15{fill:#C13D1A;}
	.st16{fill:#DB5126;}
	.st17{fill:#EF602E;}
	.st18{fill:#D3008D;}
	.st19{fill:#E8A200;}
	.st20{fill:#F9BF30;}
	.st21{fill:#5793CE;}
	.st22{fill:#396CAA;}
	.st23{fill:#D4ECFF;}
	.st24{fill:#FAFDFF;}
	.st25{opacity:0.4;fill:#D4ECFF;}
	.st26{fill:#274F89;}
	.st27{fill:#6614CF;}
</style>
<g>
	
		<rect x="72.8" y="259.2" transform="matrix(-0.5744 -0.8186 0.8186 -0.5744 -98.6717 474.5147)" class="st0" width="2.6" height="7.4"/>
	
		<rect x="74.9" y="254.6" transform="matrix(-0.5744 -0.8186 0.8186 -0.5744 -91.4548 468.9777)" class="st0" width="2.6" height="7.4"/>
	
		<rect x="77.1" y="249.9" transform="matrix(-0.5744 -0.8186 0.8186 -0.5744 -84.2379 463.4408)" class="st0" width="2.6" height="7.4"/>
	
		<rect x="79.3" y="245.3" transform="matrix(-0.5744 -0.8186 0.8186 -0.5744 -77.021 457.9037)" class="st0" width="2.6" height="7.4"/>
</g>
<g>
	<path class="st1" d="M475,168.2l1.2-2c0,0,1,0.5,2,0.2c0.8-0.3,1.5-1,2.1-2.2c2.1-4.3,5.9-4.6,7.6-4.2l-0.5,2.2l0.3-1.1l-0.3,1.1
		c-0.3-0.1-3.3-0.6-5,2.9c-0.9,1.8-2.1,3-3.5,3.4C476.8,169.2,475.2,168.3,475,168.2z"/>
</g>
<ellipse class="st2" cx="132.5" cy="277.3" rx="13.8" ry="8"/>
<path d="M123.8,176.7c0,0,0.4,7.6,0.9,12.7c0.6,5.1,12.9-3.9,12.9-3.9v-5.8L123.8,176.7z"/>
<path class="st3" d="M130.4,271.5c0.2,0.5,3.4,4.4,6.6,5.3c1.4,0.4,2.3,0.5,2.9,0.4c0.6-0.1,1-0.7,0.8-1.3c-0.5-1.5-2.1-4.8-6.1-6.8
	C129.1,266.5,130.4,271.5,130.4,271.5z"/>
<path class="st3" d="M129.3,273c0,0,1.2,2.8,1.6,5.2c0.2,1.4-0.6,3.3-1.2,4.6c-0.4,0.8-1.4,0.9-2.1,0.4c-1-0.9-2.4-2.6-2.6-5
	c-0.4-4,0-4.7,0-4.7L129.3,273z"/>
<path class="st0" d="M121.6,224.9c0,0-0.4,5,0,10.6c0.4,5.6,1.9,31.5,2.2,37.8c0,0-0.1,1.9,3.5,1.5c3.7-0.4,3.4-2.5,3.4-2.5
	s5.1-0.1,5.3-3.1c0.2-3,5.3-36.2,5.3-48.2L121.6,224.9z"/>
<path class="st4" d="M143.2,198.9l2.5,3.9l8.7,10.5c0,0-0.3,1-1.4,1.2c-0.8,0.2-8.1-6.8-11.3-9.8c-0.8-0.8-1-2.1-0.3-3.1
	L143.2,198.9z"/>
<path class="st5" d="M138.3,182.9c0,0,4-0.1,5.4,5.7c1.4,5.8,2.5,13,1.3,13.6c-3.6,1.8-5.9-0.3-5.9-0.3L138.3,182.9z"/>
<path class="st5" d="M139.4,183.1c-0.7-0.3-1.4-0.3-2.2-0.1c-3.4,1-16.2,4.7-18.4,6.6c-2.4,2.1,3.7,13.8,3.6,17.7
	c-0.1,3.8-0.5,8.4-0.9,12.6c-0.3,4.2-0.8,6.5,2.6,8.3s9.3,1.9,13.6-1.5c4.4-3.3,3.6-5.6,3.4-8c-0.2-2.4-1.7-12.9-1.5-15.8
	c0,0,1.5-1.1,2.7-3.1c1.1-1.9-0.9-5.5-1.7-7.8c-0.8-2.3,0.5-5,0.2-6.9C140.8,183.9,140.2,183.4,139.4,183.1z"/>
<path class="st6" d="M135.3,187.1c0.3,2.1-1.7,4.1-4.3,4.4c-2.7,0.3-5-1.1-5.3-3.2c-0.3-2.1,1.7-4.1,4.3-4.4
	C132.7,183.5,135.1,185,135.3,187.1z"/>
<path class="st4" d="M134,187.3c0.2,1.5-1.2,2.9-3.1,3.2c-1.9,0.2-3.6-0.8-3.8-2.3c-0.2-1.5,1.2-2.9,3.1-3.2
	C132.1,184.7,133.8,185.8,134,187.3z"/>
<path class="st4" d="M132.1,182.3c0,0-2.3-1.9-2.8-0.9c-0.5,1-0.8,5.1-0.8,5.1l4.6,1.2l-0.7-4.2
	C132.4,183.5,133.3,182.7,132.1,182.3z"/>
<path class="st4" d="M139.3,177.8c-0.2,3.8-3.5,6.7-7.3,6.4c-3.8-0.2-6.7-3.5-6.4-7.3c0.2-3.8,3.5-6.7,7.3-6.4
	C136.6,170.7,139.5,174,139.3,177.8z"/>
<path class="st7" d="M129,182.6c0,0.2-0.1,0.4-0.1,0.7c0.5,2.4,4,3.4,4,3.4l-0.5-3.2c0,0,0.4-0.4,0.3-0.7
	C131.3,182.3,129.5,181.9,129,182.6z"/>
<path class="st4" d="M139.3,177.8c-0.2,3.8-3.5,6.7-7.3,6.4c-3.8-0.2-6.7-3.5-6.4-7.3c0.2-3.8,3.5-6.7,7.3-6.4
	C136.6,170.7,139.5,174,139.3,177.8z"/>
<polygon class="st4" points="115.5,206.4 116.3,224.8 119,225.1 120.7,208.6 "/>
<path class="st5" d="M124.3,204.9c-0.9-3.9-2.6-12.6-2.6-12.6l-0.8,8.6c0.9,2.6,1.6,4.9,1.6,6.3c-0.1,2.3-0.2,4.8-0.4,7.3l0,0
	C122.1,214.5,125.2,208.8,124.3,204.9z"/>
<path class="st5" d="M119.4,189.2c0,0-2.1,0.8-3.4,7.4c-1.2,6.6-2.1,13.2,0,14.1c2.2,0.9,4,1.5,4.6-0.3c0.6-1.8,1-10.3,1.1-13.3
	C121.9,194,122,189.8,119.4,189.2z"/>
<path class="st4" d="M153.7,212.5c0,0,1.2,0.4,2,1.3c0.7,0.8,1.1,1.4,1.4,1.8c0.7,1,1.2,3.2,0.8,3.4c-0.4,0.3-2.7-3.6-3.1-2.7
	c-0.4,0.9,0,1.7-0.5,1.8c-0.5,0-2.2-3.9-3.5-5.1C149.5,211.8,153.7,212.5,153.7,212.5z"/>
<path class="st8" d="M130.7,272.2c0,0,0.6,0,1.5-0.2l0,0l1-40.4L130.7,272.2z"/>
<g>
	<path class="st9" d="M126.8,250.4l-1.4-1.9l-15-8.7c-0.5-0.3-0.9-1-0.9-1.7l0-12.3l-0.9-1.1l0.8-0.5l0,0c0.2-0.1,0.4-0.1,0.6,0
		l17,9.9c0.5,0.3,0.9,1,0.9,1.7l0,13.4c0,0.4-0.1,0.6-0.3,0.7l0,0L126.8,250.4z"/>
	<path class="st10" d="M116.4,243.3l-1.1-0.6l-5.9-10.2l0-6.7l-0.9-1.1l0.8-0.5l0,0c0.2-0.1,0.4-0.1,0.6,0l17,9.9
		c0.3,0.1,0.5,0.4,0.6,0.8L116.4,243.3z"/>
	<path class="st10" d="M109,225.2l-0.4-0.5l0.8-0.5l0,0c0.2-0.1,0.4-0.1,0.6,0l0.3,0.2L109,225.2z"/>
	<path class="st9" d="M127.2,234.2c0.4,0.3,0.7,0.9,0.7,1.4l-1.7,1l-0.8-1.4L127.2,234.2z"/>
	<path class="st11" d="M126.2,234.6l-17-9.9c-0.5-0.3-0.9,0-0.9,0.7l0,13.4c0,0.6,0.4,1.4,0.9,1.7l17,9.9c0.5,0.3,0.9,0,0.9-0.7
		l0-13.4C127.1,235.6,126.7,234.9,126.2,234.6z"/>
</g>
<path class="st4" d="M116.3,224.7c0,0-0.7,4.3-0.6,5.7c0.1,1.4,0.8,3.6,1.4,3.6c0.6,0,0-5.5,1-5c1,0.5,1.1,1.5,1.5,1.2
	c0.4-0.3-0.8-5-0.4-7S116.3,224.7,116.3,224.7z"/>
<path class="st7" d="M135.1,178c3.4,1.2,4.1,0.5,4.1,0.4c0-0.2,0.1-0.4,0.1-0.6c0-0.8,0-1.5-0.2-2.2l-8.9-1.2
	C130.1,174.4,131.5,176.7,135.1,178z"/>
<path d="M139.5,170.9c-0.8-0.7-3.7-4.1-9-3.3c-3.3,0.5-6,2.7-6.7,7.8c-0.4,3.4,0.8,6.8,3.2,9.3c0.1-0.1,0.3-0.1,0.4-0.2
	c1.3-0.9,1.5-1.3,1.5-1.3l0.3-2.6c0-0.4-0.3-0.7-0.7-0.7c-0.3,0-0.6-0.2-1-0.6c-0.8-1-0.4-2.5,1.1-2.6c0.8,0,1.1-0.5,1.2-0.9
	c0.1-0.3,0.5-0.5,0.8-0.4c1.7,0.6,5.9,2,8.7,1.2C142.8,175.7,140.3,171.6,139.5,170.9z"/>
<path class="st6" d="M135.6,181.1l2.1-0.6c0,0-1,1.6-2.5,2c-1.5,0.4-1.7-0.8-1.7-0.8L135.6,181.1z"/>
<polygon class="st10" points="119.9,230 118.1,228.9 118.7,230 119.6,230.4 "/>
<g>
	<g>
		<polygon class="st2" points="480.5,287.3 466.7,279.3 452.8,287.3 466.7,295.3 		"/>
		<polygon class="st2" points="466.7,279.3 452.8,271.2 438.9,279.3 452.8,287.3 		"/>
		<polygon class="st12" points="468.7,272.4 468.7,248.4 480.5,241.6 480.5,265.6 		"/>
		<polygon class="st11" points="468.7,248.4 457,241.6 457,265.6 468.7,272.4 		"/>
		<polygon class="st13" points="480.5,241.6 468.7,234.8 457,241.6 468.7,248.4 		"/>
	</g>
	<g>
		<polygon class="st14" points="480.5,274.7 468.7,267.9 468.7,272.4 480.5,279.3 		"/>
	</g>
	<g>
		<polygon class="st15" points="457,279.3 457,242.9 468.7,236.1 468.7,272.4 		"/>
		<polygon class="st16" points="457,242.9 445.2,236.1 445.2,272.4 457,279.3 		"/>
		<polygon class="st17" points="468.7,236.1 457,229.3 445.2,236.1 457,242.9 		"/>
		<polygon class="st18" points="457,279.3 457,242.9 468.7,236.1 468.7,272.4 		"/>
		<polygon class="st18" points="457,242.9 445.2,236.1 445.2,272.4 457,279.3 		"/>
		<polygon class="st1" points="468.7,236.1 457,229.3 445.2,236.1 457,242.9 		"/>
	</g>
	<g>
		<polygon class="st19" points="468.7,286.1 468.7,265.6 480.5,258.8 480.5,279.3 		"/>
		<polygon class="st20" points="468.7,265.6 457,258.8 457,279.3 468.7,286.1 		"/>
		<polygon class="st0" points="480.5,258.8 468.7,252 457,258.8 468.7,265.6 		"/>
	</g>
</g>
<g>
	<g>
		<path class="st21" d="M359.6,154.8c-0.5,0-1-0.4-1-1v-39.3c0-0.5,0.4-1,1-1c0.5,0,1,0.4,1,1v39.3
			C360.5,154.4,360.1,154.8,359.6,154.8z"/>
		<g>
			<g>
				<rect x="356.2" y="112.2" class="st21" width="6.8" height="14.7"/>
				<path class="st21" d="M362,128.3c-1.3,0.8-3.5,0.8-4.8,0c-1.3-0.8-1.3-2,0-2.8c1.3-0.8,3.5-0.8,4.8,0
					C363.3,126.3,363.3,127.5,362,128.3z"/>
			</g>
			<g>
				<rect x="354.1" y="91.7" class="st21" width="11" height="23.1"/>
				<path class="st22" d="M356.2,114.6v5c2,0.9,4.8,0.9,6.8,0v-5C361,113.7,358.2,113.7,356.2,114.6z"/>
				<path class="st21" d="M363.5,117c-2.2,1.2-5.7,1.2-7.8,0c-2.2-1.2-2.2-3.3,0-4.5c2.2-1.2,5.7-1.2,7.8,0
					C365.6,113.7,365.6,115.7,363.5,117z"/>
			</g>
		</g>
	</g>
	<g>
		<path class="st21" d="M397.9,176.4c-0.5,0-1-0.4-1-1v-39.3c0-0.5,0.4-1,1-1s1,0.4,1,1v39.3C398.8,175.9,398.4,176.4,397.9,176.4z"
			/>
		<g>
			<g>
				<rect x="394.5" y="133.7" class="st21" width="6.8" height="14.7"/>
				<path class="st21" d="M400.3,149.8c-1.3,0.8-3.5,0.8-4.8,0c-1.3-0.8-1.3-2,0-2.8c1.3-0.8,3.5-0.8,4.8,0
					C401.6,147.8,401.6,149,400.3,149.8z"/>
			</g>
			<g>
				<rect x="392.3" y="113.2" class="st21" width="11" height="23.1"/>
				<path class="st22" d="M394.5,136.1v5c2,0.9,4.8,0.9,6.8,0v-5C399.3,135.2,396.5,135.2,394.5,136.1z"/>
				<path class="st21" d="M401.8,138.5c-2.2,1.2-5.7,1.2-7.8,0c-2.2-1.2-2.2-3.3,0-4.5c2.2-1.2,5.7-1.2,7.8,0
					C403.9,135.3,403.9,137.3,401.8,138.5z"/>
			</g>
		</g>
	</g>
	<g>
		<g>
			<polygon class="st21" points="435.1,151.5 449.9,142.8 435.8,125.1 432.1,131.2 			"/>
			<path class="st21" d="M327.5,54.8l23.6-13.6c0,0-0.9,13.6-0.9,13.6c0,0-13.6,4.2-13.6,4.2L327.5,54.8z"/>
			<path class="st21" d="M439.2,107.2c-1.8-1-3.5-1.6-5.1-1.9c-2.4-12.5-11.1-25.8-21.5-31.8c-3.1-1.8-6.1-2.8-8.8-3
				c-1.4-15.2-12-32.4-24.8-39.8c-6.7-3.9-12.8-4.3-17.3-2l0,0l-0.2,0.1c-0.1,0.1-0.2,0.1-0.3,0.2l-13.9,8.2l4.6,3.7
				c-4.2,1.8-6.8,6.5-6.8,13.4c0,12.7,8.9,28.2,19.9,34.5l74.2,53c8.3,4.8,15,0.9,15-8.6C454.2,123.6,447.5,112,439.2,107.2z"/>
			<path class="st21" d="M345.7,48.7l32-18.7c-6.2-3.2-11.8-3.5-16-1.3l0,0l-0.2,0.1c-0.1,0.1-0.2,0.1-0.3,0.2l-13.9,8.2l4.6,3.7
				C348.9,42.2,346.8,44.8,345.7,48.7z"/>
			<path class="st21" d="M404.8,103.7L428.2,90c-4-6.9-9.5-13-15.6-16.5c-0.8-0.5-1.6-0.9-2.4-1.2l-29.7,17.4L404.8,103.7z"/>
			<path class="st23" d="M353.8,38.8l10.4,6l19.1-11.2c-1.4-1.1-2.8-2.1-4.3-2.9c-2.3-1.3-4.5-2.3-6.7-2.8L353.8,38.8z"/>
			<path class="st23" d="M425.6,85.9l-18.6,11l6.5,7.2l16.9-10C429,91.3,427.4,88.5,425.6,85.9z"/>
			<path class="st23" d="M424.5,115.8c-1.8-1-3.5-1.6-5.1-1.9c-2.4-12.5-11.1-25.8-21.5-31.8c-3.1-1.8-6.1-2.8-8.8-3
				c-1.4-15.2-12-32.4-24.8-39.8c-13.8-8-25-1.5-25,14.4c0,0.5,0,1.1,0,1.6c-10.1-4.7-18,0.6-18,12.5c0,12.7,8.9,28.2,19.9,34.5
				l83.2,48c8.3,4.8,15,0.9,15-8.6C439.5,132.2,432.8,120.6,424.5,115.8z"/>
			<g>
				<path class="st6" d="M339.4,55.3c0-0.5,0-1.1,0-1.6c0,0,0,0,0-0.1c-5.6-2.2-10.4-1.2-13.4,2.3C329.3,53.2,334,52.8,339.4,55.3z"
					/>
				<path class="st6" d="M425.8,114.6c-1.8-1-3.5-1.6-5.1-1.9c-2.4-12.5-11.1-25.8-21.5-31.8c-3.1-1.8-6.1-2.8-8.8-3
					c-1.4-15.2-12-32.4-24.8-39.8c-8.6-5-16.2-4.3-20.7,0.7c4.6-3.9,11.6-4.1,19.4,0.5c12.8,7.4,23.4,24.7,24.8,39.8
					c2.7,0.2,5.7,1.2,8.8,3c10.4,6,19.1,19.3,21.5,31.8c1.6,0.3,3.3,0.9,5.1,1.9c8.3,4.8,15,16.4,15,25.9c0,3.4-0.9,6.1-2.4,8
					c2.2-1.7,3.6-4.9,3.6-9.2C440.7,131,434,119.4,425.8,114.6z"/>
			</g>
			<g>
				<path class="st22" d="M337.6,59.1l6.3,2.9l-0.3-6.9c0-0.5,0-1,0-1.4c0-6.1,1.9-10.6,5.2-12.5c3.4-1.9,8.2-1.3,13.5,1.7
					c11.4,6.6,21.4,22.7,22.7,36.6l0.3,3.5l3.5,0.3c2.2,0.2,4.5,1,7,2.4c9.1,5.2,17.3,17.4,19.5,29l0.6,2.9l2.9,0.5
					c1.2,0.2,2.4,0.6,3.7,1.4c7,4,12.9,14.2,12.9,22.3c0,3-0.8,5.2-2.3,6.1c-1.5,0.8-3.8,0.5-6.4-1l-83.2-48
					c-9.7-5.6-17.8-19.7-17.8-30.9c0-4.4,1.3-7.7,3.5-9.2c0.9-0.6,2-0.9,3.3-0.9C334,57.8,335.8,58.2,337.6,59.1z"/>
			</g>
		</g>
		<g>
			<polygon class="st21" points="379.2,111.2 381.3,110.1 379.2,108.5 			"/>
			<polygon class="st21" points="372.6,81.6 374.7,80.5 374.7,81.6 			"/>
			<polygon class="st21" points="385.4,104.3 387.6,103.2 383.4,99.1 			"/>
			<g>
				<path class="st21" d="M380.7,110.1l-10.4-6.1c-0.5-0.3-1-1.1-1-1.7l0-12l12.3,7.2l0,12C381.7,110.1,381.2,110.4,380.7,110.1z"/>
				<path class="st21" d="M374.7,80.5l-11.2,7.2c-0.5,0.3-0.1,1.4,0.6,1.9l11.5,6.7l11.5,6.7c0.7,0.4,1.1-0.3,0.6-1.1l-11.1-20.4
					C376,80.7,375.2,80.2,374.7,80.5z"/>
			</g>
			<g>
				<path class="st23" d="M378.5,111.2l-10.4-6.1c-0.5-0.3-1-1.1-1-1.7l0-12l12.3,7.2l0,12C379.4,111.2,379,111.5,378.5,111.2z"/>
				<path class="st23" d="M372.4,81.6l-11.2,7.2c-0.5,0.3-0.1,1.4,0.6,1.9l11.5,6.7l11.5,6.7c0.7,0.4,1.1-0.3,0.6-1.1l-11.1-20.4
					C373.8,81.8,372.9,81.3,372.4,81.6z"/>
			</g>
		</g>
	</g>
	<path class="st23" d="M358.5,124.3c0,0.7-0.5,1-1.1,0.6c-0.6-0.3-1.1-1.2-1.1-1.8c0-0.7,0.5-1,1.1-0.6
		C358.1,122.8,358.5,123.6,358.5,124.3z"/>
	<path class="st23" d="M396.9,146.2c0,0.7-0.5,1-1.1,0.6c-0.6-0.3-1.1-1.2-1.1-1.8c0-0.7,0.5-1,1.1-0.6
		C396.4,144.7,396.9,145.5,396.9,146.2z"/>
</g>
<g>
	<g>
		<g>
			<path class="st2" d="M328.4,294.6l-48.6-27.7c-1.8-1-1.6-2.8,0.5-4l28-16.1c2.1-1.2,5.2-1.3,6.9-0.3l48.6,27.7
				c1.8,1,1.6,2.8-0.5,4l-28,16.1C333.2,295.5,330.1,295.6,328.4,294.6z"/>
			<path class="st22" d="M368.1,264.8L368.1,264.8V151.3L323,139.5l-8.3-4.8c-1.9-1.1-5.2-1-7.4,0.3l-7.8,4.5l-24.1,0l7.1,109.5
				c-0.1,0.7,0.4,1.5,1.3,2l45,34c1.9,1.1,5.2,1,7.4-0.3l30-17.3C367.5,266.6,368.2,265.7,368.1,264.8z"/>
			<path class="st23" d="M311.2,134c-1.4,0-2.8,0.4-4,1l-7.8,4.5l-24.1,0v113.8c-0.1,0.7,0.4,1.5,1.3,2l52.1,29.7
				c0.9,0.5,2.2,0.8,3.5,0.7l0.5-114.5L311.2,134z"/>
			<path class="st21" d="M329.3,285.2c1.6,0.7,4,0.7,5.9-0.1V169.9h-5.9V285.2z"/>
			<path class="st23" d="M328.8,171.3l-52.1-29.7c-1.9-1.1-1.7-3,0.5-4.3l30-17.3c2.2-1.3,5.5-1.4,7.4-0.3l52.1,29.7
				c1.9,1.1,1.7,3-0.5,4.3l-30,17.3C334.1,172.2,330.7,172.4,328.8,171.3z"/>
			<path class="st24" d="M366.3,151.5l-30,17.3c-2.2,1.3-5.5,1.4-7.4,0.3l-52.1-29.7c-0.4-0.2-0.7-0.5-1-0.8c-0.7,1.1-0.4,2.2,1,3
				l52.1,29.7c1.9,1.1,5.2,1,7.4-0.3l30-17.3c1.7-1,2.2-2.4,1.5-3.5C367.5,150.7,367,151.1,366.3,151.5z"/>
			<g>
				<path class="st3" d="M330.3,159.2l-34.7-20.1c-0.9-0.5-0.8-1.4,0.2-2l14-8.1c1-0.6,2.6-0.7,3.5-0.1l34.7,20.1
					c0.9,0.5,0.8,1.4-0.2,2l-14,8.1C332.8,159.7,331.2,159.7,330.3,159.2z"/>
				<g>
					<path class="st23" d="M311.6,140l-2-1.2c-0.1-0.1-0.1-0.2,0-0.3l1.9-1.1c0.1-0.1,0.4-0.1,0.5,0l2,1.2c0.1,0.1,0.1,0.2,0,0.3
						L312,140C311.9,140.1,311.7,140.1,311.6,140z"/>
					<path class="st23" d="M318.3,143.9l-2-1.2c-0.1-0.1-0.1-0.2,0-0.3l1.9-1.1c0.1-0.1,0.4-0.1,0.5,0l2,1.2c0.1,0.1,0.1,0.2,0,0.3
						l-1.9,1.1C318.6,143.9,318.4,143.9,318.3,143.9z"/>
					<path class="st23" d="M325,147.7l-2-1.2c-0.1-0.1-0.1-0.2,0-0.3l1.9-1.1c0.1-0.1,0.4-0.1,0.5,0l2,1.2c0.1,0.1,0.1,0.2,0,0.3
						l-1.9,1.1C325.3,147.8,325.1,147.8,325,147.7z"/>
					<path class="st23" d="M331.7,151.6l-2-1.2c-0.1-0.1-0.1-0.2,0-0.3l1.9-1.1c0.1-0.1,0.4-0.1,0.5,0l2,1.2c0.1,0.1,0.1,0.2,0,0.3
						l-1.9,1.1C332.1,151.7,331.8,151.7,331.7,151.6z"/>
				</g>
				<path class="st21" d="M295.6,139.1L295.6,139.1c0.1,0,0.2-0.1,0.2-0.1l14-8.1c1-0.6,2.6-0.7,3.5-0.1l34.7,20.1
					c0.8-0.6,0.9-1.4,0-1.9l-34.7-20.1c-0.9-0.5-2.5-0.5-3.5,0.1l-14,8.1C294.8,137.7,294.7,138.6,295.6,139.1z"/>
			</g>
		</g>
		<g>
			<path class="st3" d="M342.1,193.8l19.7-11.3c1.1-0.6,2-2.4,2-3.8v-7.1c0-1.5-0.9-2.2-2-1.5l-19.7,11.3c-1.1,0.6-2,2.4-2,3.8v7.1
				C340.1,193.7,341,194.4,342.1,193.8z"/>
			<path class="st6" d="M362.8,169.8c0.3,0.3,0.5,0.8,0.5,1.5v7.1c0,1.5-0.9,3.2-2,3.8l-19.7,11.3c-0.4,0.2-0.7,0.3-1,0.2
				c0.4,0.3,0.9,0.4,1.5,0.1l19.7-11.3c1.1-0.6,2-2.4,2-3.8v-7.1C363.9,170.5,363.5,169.9,362.8,169.8z"/>
			<g>
				<path class="st22" d="M348.1,186.1l1.8-1c0.2-0.1,0.4-0.5,0.4-0.8v-1.9c0-0.3-0.2-0.5-0.4-0.3l-1.8,1c-0.2,0.1-0.4,0.5-0.4,0.8
					v1.9C347.6,186.1,347.8,186.2,348.1,186.1z"/>
				<path class="st6" d="M354.1,182.6l1.8-1c0.2-0.1,0.4-0.5,0.4-0.8v-1.9c0-0.3-0.2-0.5-0.4-0.3l-1.8,1c-0.2,0.1-0.4,0.5-0.4,0.8
					v1.9C353.7,182.6,353.9,182.7,354.1,182.6z"/>
			</g>
		</g>
		<g>
			<path class="st3" d="M342.1,244.8l19.7-11.3c1.1-0.6,2-2.4,2-3.8v-7.1c0-1.5-0.9-2.2-2-1.5l-19.7,11.3c-1.1,0.6-2,2.4-2,3.8v7.1
				C340.1,244.7,341,245.4,342.1,244.8z"/>
			<path class="st6" d="M362.8,220.8c0.3,0.3,0.5,0.8,0.5,1.5v7.1c0,1.5-0.9,3.2-2,3.8l-19.7,11.3c-0.4,0.2-0.7,0.3-1,0.2
				c0.4,0.3,0.9,0.4,1.5,0.1l19.7-11.3c1.1-0.6,2-2.4,2-3.8v-7.1C363.9,221.5,363.5,220.9,362.8,220.8z"/>
			<g>
				<path class="st22" d="M348.1,237.1l1.8-1c0.2-0.1,0.4-0.5,0.4-0.8v-1.9c0-0.3-0.2-0.5-0.4-0.3l-1.8,1c-0.2,0.1-0.4,0.5-0.4,0.8
					v1.9C347.6,237.1,347.8,237.2,348.1,237.1z"/>
				<path class="st6" d="M354.1,233.6l1.8-1c0.2-0.1,0.4-0.5,0.4-0.8v-1.9c0-0.3-0.2-0.5-0.4-0.3l-1.8,1c-0.2,0.1-0.4,0.5-0.4,0.8
					v1.9C353.7,233.6,353.9,233.7,354.1,233.6z"/>
			</g>
		</g>
		<g>
			<path class="st3" d="M342.1,270.3l19.7-11.3c1.1-0.6,2-2.4,2-3.8v-7.1c0-1.5-0.9-2.2-2-1.5l-19.7,11.3c-1.1,0.6-2,2.4-2,3.8v7.1
				C340.1,270.2,341,270.9,342.1,270.3z"/>
			<path class="st6" d="M362.8,246.3c0.3,0.3,0.5,0.8,0.5,1.5v7.1c0,1.5-0.9,3.2-2,3.8L341.6,270c-0.4,0.2-0.7,0.3-1,0.2
				c0.4,0.3,0.9,0.4,1.5,0.1l19.7-11.3c1.1-0.6,2-2.4,2-3.8v-7.1C363.9,247,363.5,246.4,362.8,246.3z"/>
			<g>
				<path class="st22" d="M348.1,262.6l1.8-1c0.2-0.1,0.4-0.5,0.4-0.8v-1.9c0-0.3-0.2-0.5-0.4-0.3l-1.8,1c-0.2,0.1-0.4,0.5-0.4,0.8
					v1.9C347.6,262.6,347.8,262.7,348.1,262.6z"/>
				<path class="st6" d="M354.1,259.1l1.8-1c0.2-0.1,0.4-0.5,0.4-0.8v-1.9c0-0.3-0.2-0.5-0.4-0.3l-1.8,1c-0.2,0.1-0.4,0.5-0.4,0.8
					v1.9C353.7,259.1,353.9,259.2,354.1,259.1z"/>
			</g>
		</g>
		<g>
			<path class="st3" d="M342.1,219.3l19.7-11.3c1.1-0.6,2-2.4,2-3.8v-7.1c0-1.5-0.9-2.2-2-1.5l-19.7,11.3c-1.1,0.6-2,2.4-2,3.8v7.1
				C340.1,219.2,341,219.9,342.1,219.3z"/>
			<path class="st6" d="M362.8,195.3c0.3,0.3,0.5,0.8,0.5,1.5v7.1c0,1.5-0.9,3.2-2,3.8L341.6,219c-0.4,0.2-0.7,0.3-1,0.2
				c0.4,0.3,0.9,0.4,1.5,0.1l19.7-11.3c1.1-0.6,2-2.4,2-3.8v-7.1C363.9,196,363.5,195.4,362.8,195.3z"/>
			<g>
				<path class="st22" d="M348.1,211.6l1.8-1c0.2-0.1,0.4-0.5,0.4-0.8v-1.9c0-0.3-0.2-0.5-0.4-0.3l-1.8,1c-0.2,0.1-0.4,0.5-0.4,0.8
					v1.9C347.6,211.6,347.8,211.7,348.1,211.6z"/>
				<path class="st6" d="M354.1,208.1l1.8-1c0.2-0.1,0.4-0.5,0.4-0.8v-1.9c0-0.3-0.2-0.5-0.4-0.3l-1.8,1c-0.2,0.1-0.4,0.5-0.4,0.8
					v1.9C353.7,208.1,353.9,208.2,354.1,208.1z"/>
			</g>
		</g>
	</g>
	<g>
		<path class="st21" d="M325,186.5l-45.5-26.3c-1-0.6-1.8-2.2-1.8-3.5V148c0-1.4,0.8-2,1.8-1.4l45.5,26.3c1,0.6,1.8,2.2,1.8,3.5v8.7
			C326.9,186.5,326.1,187.1,325,186.5z"/>
		<path class="st25" d="M323.7,183.5l-42.9-24.8c-0.5-0.3-0.9-1.1-0.9-1.8v-6.5c0-0.7,0.4-1,0.9-0.7l42.9,24.8
			c0.5,0.3,0.9,1.1,0.9,1.8v6.5C324.7,183.5,324.2,183.8,323.7,183.5z"/>
		<path class="st23" d="M289.8,160.6l-6.4-3.7c-0.5-0.3-0.9-1.1-0.9-1.7l0,0c0-0.7,0.4-1,0.9-0.7l6.4,3.7c0.5,0.3,0.9,1.1,0.9,1.7
			l0,0C290.7,160.5,290.3,160.9,289.8,160.6z"/>
		<path class="st3" d="M295.2,162.5c0,0.7-0.5,0.9-1,0.6c-0.6-0.3-1-1.1-1-1.8c0-0.7,0.5-0.9,1-0.6
			C294.7,161,295.2,161.8,295.2,162.5z"/>
		<path class="st3" d="M298.9,164.6c0,0.7-0.5,0.9-1,0.6c-0.6-0.3-1-1.1-1-1.8c0-0.7,0.5-0.9,1-0.6
			C298.4,163.2,298.9,164,298.9,164.6z"/>
		<path class="st23" d="M302.6,166.8c0,0.7-0.5,0.9-1,0.6c-0.6-0.3-1-1.1-1-1.8c0-0.7,0.5-0.9,1-0.6
			C302.1,165.3,302.6,166.1,302.6,166.8z"/>
		<path class="st3" d="M306.3,168.9c0,0.7-0.5,0.9-1,0.6c-0.6-0.3-1-1.1-1-1.8c0-0.7,0.5-0.9,1-0.6
			C305.8,167.4,306.3,168.3,306.3,168.9z"/>
		<path class="st3" d="M321.9,179.8l-2.2-1.2c-0.3-0.2-0.6-0.7-0.6-1.1v-2.3c0-0.4,0.3-0.6,0.6-0.4l2.2,1.2c0.3,0.2,0.6,0.7,0.6,1.1
			v2.3C322.5,179.8,322.2,180,321.9,179.8z"/>
	</g>
	<g>
		<path class="st21" d="M325,201.8l-45.5-26.3c-1-0.6-1.8-2.2-1.8-3.5v-8.7c0-1.4,0.8-2,1.8-1.4l45.5,26.3c1,0.6,1.8,2.2,1.8,3.5
			v8.7C326.9,201.8,326.1,202.4,325,201.8z"/>
		<path class="st25" d="M323.7,198.8L280.8,174c-0.5-0.3-0.9-1.1-0.9-1.8v-6.5c0-0.7,0.4-1,0.9-0.7l42.9,24.8
			c0.5,0.3,0.9,1.1,0.9,1.8v6.5C324.7,198.8,324.2,199.1,323.7,198.8z"/>
		<path class="st23" d="M289.8,175.9l-6.4-3.7c-0.5-0.3-0.9-1.1-0.9-1.7l0,0c0-0.7,0.4-1,0.9-0.7l6.4,3.7c0.5,0.3,0.9,1.1,0.9,1.7
			l0,0C290.7,175.9,290.3,176.2,289.8,175.9z"/>
		<path class="st6" d="M295.2,177.8c0,0.7-0.5,0.9-1,0.6c-0.6-0.3-1-1.1-1-1.8c0-0.7,0.5-0.9,1-0.6
			C294.7,176.3,295.2,177.1,295.2,177.8z"/>
		<path class="st3" d="M298.9,180c0,0.7-0.5,0.9-1,0.6c-0.6-0.3-1-1.1-1-1.8c0-0.7,0.5-0.9,1-0.6C298.4,178.5,298.9,179.3,298.9,180
			z"/>
		<ellipse transform="matrix(0.866 -0.5 0.5 0.866 -50.3413 175.0989)" class="st23" cx="301.6" cy="181.5" rx="0.9" ry="1.5"/>
		<ellipse transform="matrix(0.866 -0.5 0.5 0.866 -50.9142 177.2371)" class="st3" cx="305.3" cy="183.6" rx="0.9" ry="1.5"/>
		<path class="st3" d="M321.9,195.2l-2.2-1.2c-0.3-0.2-0.6-0.7-0.6-1.1v-2.3c0-0.4,0.3-0.6,0.6-0.4l2.2,1.2c0.3,0.2,0.6,0.7,0.6,1.1
			v2.3C322.5,195.1,322.2,195.3,321.9,195.2z"/>
	</g>
	<g>
		<path class="st21" d="M325,217.1l-45.5-26.3c-1-0.6-1.8-2.2-1.8-3.5v-8.7c0-1.4,0.8-2,1.8-1.4l45.5,26.3c1,0.6,1.8,2.2,1.8,3.5
			v8.7C326.9,217.1,326.1,217.7,325,217.1z"/>
		<path class="st25" d="M323.7,214.1l-42.9-24.8c-0.5-0.3-0.9-1.1-0.9-1.8V181c0-0.7,0.4-1,0.9-0.7l42.9,24.8
			c0.5,0.3,0.9,1.1,0.9,1.8v6.5C324.7,214.1,324.2,214.4,323.7,214.1z"/>
		<path class="st23" d="M289.8,191.2l-6.4-3.7c-0.5-0.3-0.9-1.1-0.9-1.7l0,0c0-0.7,0.4-1,0.9-0.7l6.4,3.7c0.5,0.3,0.9,1.1,0.9,1.7
			l0,0C290.7,191.2,290.3,191.5,289.8,191.2z"/>
		<path class="st6" d="M295.2,193.1c0,0.7-0.5,0.9-1,0.6c-0.6-0.3-1-1.1-1-1.8c0-0.7,0.5-0.9,1-0.6
			C294.7,191.6,295.2,192.5,295.2,193.1z"/>
		<path class="st3" d="M298.9,195.3c0,0.7-0.5,0.9-1,0.6c-0.6-0.3-1-1.1-1-1.8c0-0.7,0.5-0.9,1-0.6
			C298.4,193.8,298.9,194.6,298.9,195.3z"/>
		<path class="st23" d="M302.6,197.4c0,0.7-0.5,0.9-1,0.6c-0.6-0.3-1-1.1-1-1.8c0-0.7,0.5-0.9,1-0.6
			C302.1,195.9,302.6,196.7,302.6,197.4z"/>
		<path class="st3" d="M306.3,199.5c0,0.7-0.5,0.9-1,0.6c-0.6-0.3-1-1.1-1-1.8c0-0.7,0.5-0.9,1-0.6
			C305.8,198.1,306.3,198.9,306.3,199.5z"/>
		<path class="st3" d="M321.9,210.5l-2.2-1.2c-0.3-0.2-0.6-0.7-0.6-1.1v-2.3c0-0.4,0.3-0.6,0.6-0.4l2.2,1.2c0.3,0.2,0.6,0.7,0.6,1.1
			v2.3C322.5,210.5,322.2,210.7,321.9,210.5z"/>
	</g>
	<g>
		<path class="st21" d="M325,232.5l-45.5-26.3c-1-0.6-1.8-2.2-1.8-3.5V194c0-1.4,0.8-2,1.8-1.4l45.5,26.3c1,0.6,1.8,2.2,1.8,3.5v8.7
			C326.9,232.4,326.1,233,325,232.5z"/>
		<path class="st25" d="M323.7,229.4l-42.9-24.8c-0.5-0.3-0.9-1.1-0.9-1.8v-6.5c0-0.7,0.4-1,0.9-0.7l42.9,24.8
			c0.5,0.3,0.9,1.1,0.9,1.8v6.5C324.7,229.4,324.2,229.7,323.7,229.4z"/>
		<path class="st23" d="M289.8,206.5l-6.4-3.7c-0.5-0.3-0.9-1.1-0.9-1.7l0,0c0-0.7,0.4-1,0.9-0.7l6.4,3.7c0.5,0.3,0.9,1.1,0.9,1.7
			l0,0C290.7,206.5,290.3,206.8,289.8,206.5z"/>
		<path class="st3" d="M295.2,208.4c0,0.7-0.5,0.9-1,0.6c-0.6-0.3-1-1.1-1-1.8c0-0.7,0.5-0.9,1-0.6
			C294.7,207,295.2,207.8,295.2,208.4z"/>
		<path class="st3" d="M298.9,210.6c0,0.7-0.5,0.9-1,0.6c-0.6-0.3-1-1.1-1-1.8c0-0.7,0.5-0.9,1-0.6
			C298.4,209.1,298.9,209.9,298.9,210.6z"/>
		<path class="st23" d="M302.6,212.7c0,0.7-0.5,0.9-1,0.6c-0.6-0.3-1-1.1-1-1.8c0-0.7,0.5-0.9,1-0.6S302.6,212,302.6,212.7z"/>
		<ellipse transform="matrix(0.866 -0.5 0.5 0.866 -66.2251 181.3396)" class="st3" cx="305.3" cy="214.2" rx="0.9" ry="1.5"/>
		<path class="st23" d="M321.9,225.8l-2.2-1.2c-0.3-0.2-0.6-0.7-0.6-1.1v-2.3c0-0.4,0.3-0.6,0.6-0.4l2.2,1.2
			c0.3,0.2,0.6,0.7,0.6,1.1v2.3C322.5,225.8,322.2,226,321.9,225.8z"/>
	</g>
	<g>
		<path class="st21" d="M325,247.8l-45.5-26.3c-1-0.6-1.8-2.2-1.8-3.5v-8.7c0-1.4,0.8-2,1.8-1.4l45.5,26.3c1,0.6,1.8,2.2,1.8,3.5
			v8.7C326.9,247.7,326.1,248.4,325,247.8z"/>
		<path class="st25" d="M323.7,244.7l-42.9-24.8c-0.5-0.3-0.9-1.1-0.9-1.8v-6.5c0-0.7,0.4-1,0.9-0.7l42.9,24.8
			c0.5,0.3,0.9,1.1,0.9,1.8v6.5C324.7,244.7,324.2,245,323.7,244.7z"/>
		<path class="st23" d="M289.8,221.8l-6.4-3.7c-0.5-0.3-0.9-1.1-0.9-1.7l0,0c0-0.7,0.4-1,0.9-0.7l6.4,3.7c0.5,0.3,0.9,1.1,0.9,1.7
			l0,0C290.7,221.8,290.3,222.1,289.8,221.8z"/>
		<path class="st3" d="M295.2,223.7c0,0.7-0.5,0.9-1,0.6c-0.6-0.3-1-1.1-1-1.8c0-0.7,0.5-0.9,1-0.6
			C294.7,222.3,295.2,223.1,295.2,223.7z"/>
		<path class="st6" d="M298.9,225.9c0,0.7-0.5,0.9-1,0.6c-0.6-0.3-1-1.1-1-1.8c0-0.7,0.5-0.9,1-0.6
			C298.4,224.4,298.9,225.2,298.9,225.9z"/>
		<path class="st23" d="M302.6,228c0,0.7-0.5,0.9-1,0.6c-0.6-0.3-1-1.1-1-1.8c0-0.7,0.5-0.9,1-0.6
			C302.1,226.5,302.6,227.4,302.6,228z"/>
		<path class="st6" d="M306.3,230.2c0,0.7-0.5,0.9-1,0.6c-0.6-0.3-1-1.1-1-1.8c0-0.7,0.5-0.9,1-0.6
			C305.8,228.7,306.3,229.5,306.3,230.2z"/>
		<path class="st23" d="M321.9,241.1l-2.2-1.2c-0.3-0.2-0.6-0.7-0.6-1.1v-2.3c0-0.4,0.3-0.6,0.6-0.4l2.2,1.2
			c0.3,0.2,0.6,0.7,0.6,1.1v2.3C322.5,241.1,322.2,241.3,321.9,241.1z"/>
	</g>
	<g>
		<path class="st21" d="M325,263.1l-45.5-26.3c-1-0.6-1.8-2.2-1.8-3.5v-8.7c0-1.4,0.8-2,1.8-1.4l45.5,26.3c1,0.6,1.8,2.2,1.8,3.5
			v8.7C326.9,263,326.1,263.7,325,263.1z"/>
		<path class="st25" d="M323.7,260l-42.9-24.8c-0.5-0.3-0.9-1.1-0.9-1.8v-6.5c0-0.7,0.4-1,0.9-0.7l42.9,24.8
			c0.5,0.3,0.9,1.1,0.9,1.8v6.5C324.7,260,324.2,260.3,323.7,260z"/>
		<path class="st23" d="M289.8,237.1l-6.4-3.7c-0.5-0.3-0.9-1.1-0.9-1.7l0,0c0-0.7,0.4-1,0.9-0.7l6.4,3.7c0.5,0.3,0.9,1.1,0.9,1.7
			l0,0C290.7,237.1,290.3,237.4,289.8,237.1z"/>
		<path class="st3" d="M295.2,239.1c0,0.7-0.5,0.9-1,0.6c-0.6-0.3-1-1.1-1-1.8c0-0.7,0.5-0.9,1-0.6
			C294.7,237.6,295.2,238.4,295.2,239.1z"/>
		<path class="st3" d="M298.9,241.2c0,0.7-0.5,0.9-1,0.6c-0.6-0.3-1-1.1-1-1.8c0-0.7,0.5-0.9,1-0.6
			C298.4,239.7,298.9,240.5,298.9,241.2z"/>
		<path class="st23" d="M302.6,243.3c0,0.7-0.5,0.9-1,0.6c-0.6-0.3-1-1.1-1-1.8c0-0.7,0.5-0.9,1-0.6
			C302.1,241.9,302.6,242.7,302.6,243.3z"/>
		<path class="st3" d="M306.3,245.5c0,0.7-0.5,0.9-1,0.6c-0.6-0.3-1-1.1-1-1.8c0-0.7,0.5-0.9,1-0.6S306.3,244.8,306.3,245.5z"/>
		<path class="st3" d="M321.9,256.4l-2.2-1.2c-0.3-0.2-0.6-0.7-0.6-1.1v-2.3c0-0.4,0.3-0.6,0.6-0.4l2.2,1.2c0.3,0.2,0.6,0.7,0.6,1.1
			v2.3C322.5,256.4,322.2,256.6,321.9,256.4z"/>
	</g>
	<g>
		<path class="st21" d="M325,278.4l-45.5-26.3c-1-0.6-1.8-2.2-1.8-3.5v-8.7c0-1.4,0.8-2,1.8-1.4l45.5,26.3c1,0.6,1.8,2.2,1.8,3.5
			v8.7C326.9,278.4,326.1,279,325,278.4z"/>
		<path class="st25" d="M323.7,275.3l-42.9-24.8c-0.5-0.3-0.9-1.1-0.9-1.8v-6.5c0-0.7,0.4-1,0.9-0.7l42.9,24.8
			c0.5,0.3,0.9,1.1,0.9,1.8v6.5C324.7,275.3,324.2,275.6,323.7,275.3z"/>
		<path class="st23" d="M289.8,252.4l-6.4-3.7c-0.5-0.3-0.9-1.1-0.9-1.7l0,0c0-0.7,0.4-1,0.9-0.7l6.4,3.7c0.5,0.3,0.9,1.1,0.9,1.7
			l0,0C290.7,252.4,290.3,252.7,289.8,252.4z"/>
		<path class="st6" d="M319.2,268.5c0,1.3-0.9,1.8-2,1.1c-1.1-0.6-2-2.2-2-3.4c0-1.3,0.9-1.8,2-1.1
			C318.3,265.7,319.2,267.2,319.2,268.5z"/>
		<path class="st3" d="M295.2,254.6c0,0.7-0.5,0.9-1,0.6c-0.6-0.3-1-1.1-1-1.8c0-0.7,0.5-0.9,1-0.6
			C294.7,253.1,295.2,253.9,295.2,254.6z"/>
		<path class="st23" d="M298.9,256.7c0,0.7-0.5,0.9-1,0.6c-0.6-0.3-1-1.1-1-1.8c0-0.7,0.5-0.9,1-0.6
			C298.4,255.2,298.9,256,298.9,256.7z"/>
		<ellipse transform="matrix(0.866 -0.5 0.5 0.866 -88.7141 185.3809)" class="st3" cx="301.6" cy="258.2" rx="0.9" ry="1.5"/>
	</g>
</g>
<g>
	<g>
		<g>
			<path class="st2" d="M392.9,331.6l-48.6-27.7c-1.8-1-1.6-2.8,0.5-4l28-16.1c2.1-1.2,5.2-1.3,6.9-0.3l48.6,27.7
				c1.8,1,1.6,2.8-0.5,4l-28,16.1C397.8,332.5,394.7,332.6,392.9,331.6z"/>
			<path class="st22" d="M432.7,301.8L432.7,301.8V188.4l-45.1-11.8l-8.3-4.8c-1.9-1.1-5.2-1-7.4,0.3l-7.8,4.5l-24.1,0l7.1,109.5
				c-0.1,0.7,0.4,1.5,1.3,2l45,34c1.9,1.1,5.2,1,7.4-0.3l30-17.3C432.1,303.7,432.7,302.7,432.7,301.8z"/>
			<path class="st23" d="M375.8,171c-1.4,0-2.8,0.4-4,1l-7.8,4.5l-24.1,0v113.8c-0.1,0.7,0.4,1.5,1.3,2l52.1,29.7
				c0.9,0.5,2.2,0.8,3.5,0.7l0.5-114.5L375.8,171z"/>
			<path class="st21" d="M393.9,322.3c1.6,0.7,4,0.7,5.9-0.1V206.9h-5.9V322.3z"/>
			<path class="st23" d="M393.4,208.3l-52.1-29.7c-1.9-1.1-1.7-3,0.5-4.3l30-17.3c2.2-1.3,5.5-1.4,7.4-0.3l52.1,29.7
				c1.9,1.1,1.7,3-0.5,4.3l-30,17.3C398.7,209.3,395.3,209.4,393.4,208.3z"/>
			<path class="st24" d="M430.9,188.6l-30,17.3c-2.2,1.3-5.5,1.4-7.4,0.3l-52.1-29.7c-0.4-0.2-0.7-0.5-1-0.8c-0.7,1.1-0.4,2.2,1,3
				l52.1,29.7c1.9,1.1,5.2,1,7.4-0.3l30-17.3c1.7-1,2.2-2.4,1.5-3.5C432,187.7,431.6,188.2,430.9,188.6z"/>
			<g>
				<path class="st3" d="M394.9,196.2l-34.7-20.1c-0.9-0.5-0.8-1.4,0.2-2l14-8.1c1-0.6,2.6-0.7,3.5-0.1l34.7,20.1
					c0.9,0.5,0.8,1.4-0.3,2l-14,8.1C397.4,196.7,395.8,196.8,394.9,196.2z"/>
				<g>
					<path class="st23" d="M376.2,177l-2-1.2c-0.1-0.1-0.1-0.2,0-0.3l1.9-1.1c0.1-0.1,0.4-0.1,0.5,0l2,1.2c0.1,0.1,0.1,0.2,0,0.3
						l-1.9,1.1C376.5,177.1,376.3,177.1,376.2,177z"/>
					<path class="st23" d="M382.9,180.9l-2-1.2c-0.1-0.1-0.1-0.2,0-0.3l1.9-1.1c0.1-0.1,0.4-0.1,0.5,0l2,1.2c0.1,0.1,0.1,0.2,0,0.3
						l-1.9,1.1C383.2,181,383,181,382.9,180.9z"/>
					<path class="st23" d="M389.6,184.8l-2-1.2c-0.1-0.1-0.1-0.2,0-0.3l1.9-1.1c0.1-0.1,0.4-0.1,0.5,0l2,1.2c0.1,0.1,0.1,0.2,0,0.3
						l-1.9,1.1C389.9,184.8,389.7,184.8,389.6,184.8z"/>
					<path class="st23" d="M396.3,188.6l-2-1.2c-0.1-0.1-0.1-0.2,0-0.3l1.9-1.1c0.1-0.1,0.4-0.1,0.5,0l2,1.2c0.1,0.1,0.1,0.2,0,0.3
						l-1.9,1.1C396.7,188.7,396.4,188.7,396.3,188.6z"/>
				</g>
				<path class="st21" d="M360.2,176.1L360.2,176.1c0.1,0,0.2-0.1,0.2-0.1l14-8.1c1-0.6,2.6-0.7,3.5-0.1l34.7,20.1
					c0.8-0.6,0.9-1.4,0-1.9L378,165.9c-0.9-0.5-2.5-0.5-3.5,0.1l-14,8.1C359.4,174.7,359.3,175.6,360.2,176.1z"/>
			</g>
		</g>
		<g>
			<path class="st3" d="M406.7,230.8l19.7-11.3c1.1-0.6,2-2.4,2-3.8v-7.1c0-1.5-0.9-2.2-2-1.5l-19.7,11.3c-1.1,0.6-2,2.4-2,3.8v7.1
				C404.7,230.7,405.6,231.4,406.7,230.8z"/>
			<path class="st6" d="M427.4,206.8c0.3,0.3,0.5,0.8,0.5,1.5v7.1c0,1.5-0.9,3.2-2,3.8l-19.7,11.3c-0.4,0.2-0.7,0.3-1,0.2
				c0.4,0.3,0.9,0.4,1.5,0.1l19.7-11.3c1.1-0.6,2-2.4,2-3.8v-7.1C428.5,207.6,428,206.9,427.4,206.8z"/>
			<g>
				<path class="st22" d="M412.7,223.1l1.8-1c0.2-0.1,0.4-0.5,0.4-0.8v-1.9c0-0.3-0.2-0.5-0.4-0.3l-1.8,1c-0.2,0.1-0.4,0.5-0.4,0.8
					v1.9C412.2,223.1,412.4,223.2,412.7,223.1z"/>
				<path class="st6" d="M418.7,219.6l1.8-1c0.2-0.1,0.4-0.5,0.4-0.8v-1.9c0-0.3-0.2-0.5-0.4-0.3l-1.8,1c-0.2,0.1-0.4,0.5-0.4,0.8
					v1.9C418.3,219.6,418.5,219.8,418.7,219.6z"/>
			</g>
		</g>
		<g>
			<path class="st3" d="M406.7,281.8l19.7-11.3c1.1-0.6,2-2.4,2-3.8v-7.1c0-1.5-0.9-2.2-2-1.5l-19.7,11.3c-1.1,0.6-2,2.4-2,3.8v7.1
				C404.7,281.7,405.6,282.4,406.7,281.8z"/>
			<path class="st6" d="M427.4,257.8c0.3,0.3,0.5,0.8,0.5,1.5v7.1c0,1.5-0.9,3.2-2,3.8l-19.7,11.3c-0.4,0.2-0.7,0.3-1,0.2
				c0.4,0.3,0.9,0.4,1.5,0.1l19.7-11.3c1.1-0.6,2-2.4,2-3.8v-7.1C428.5,258.6,428,257.9,427.4,257.8z"/>
			<g>
				<path class="st22" d="M412.7,274.1l1.8-1c0.2-0.1,0.4-0.5,0.4-0.8v-1.9c0-0.3-0.2-0.5-0.4-0.3l-1.8,1c-0.2,0.1-0.4,0.5-0.4,0.8
					v1.9C412.2,274.1,412.4,274.2,412.7,274.1z"/>
				<path class="st6" d="M418.7,270.6l1.8-1c0.2-0.1,0.4-0.5,0.4-0.8v-1.9c0-0.3-0.2-0.5-0.4-0.3l-1.8,1c-0.2,0.1-0.4,0.5-0.4,0.8
					v1.9C418.3,270.6,418.5,270.8,418.7,270.6z"/>
			</g>
		</g>
		<g>
			<path class="st3" d="M406.7,307.3l19.7-11.3c1.1-0.6,2-2.4,2-3.8v-7.1c0-1.5-0.9-2.2-2-1.5l-19.7,11.3c-1.1,0.6-2,2.4-2,3.8v7.1
				C404.7,307.2,405.6,307.9,406.7,307.3z"/>
			<path class="st6" d="M427.4,283.3c0.3,0.3,0.5,0.8,0.5,1.5v7.1c0,1.5-0.9,3.2-2,3.8L406.2,307c-0.4,0.2-0.7,0.3-1,0.2
				c0.4,0.3,0.9,0.4,1.5,0.1l19.7-11.3c1.1-0.6,2-2.4,2-3.8v-7.1C428.5,284.1,428,283.4,427.4,283.3z"/>
			<g>
				<path class="st22" d="M412.7,299.6l1.8-1c0.2-0.1,0.4-0.5,0.4-0.8v-1.9c0-0.3-0.2-0.5-0.4-0.3l-1.8,1c-0.2,0.1-0.4,0.5-0.4,0.8
					v1.9C412.2,299.6,412.4,299.7,412.7,299.6z"/>
				<path class="st6" d="M418.7,296.1l1.8-1c0.2-0.1,0.4-0.5,0.4-0.8v-1.9c0-0.3-0.2-0.5-0.4-0.3l-1.8,1c-0.2,0.1-0.4,0.5-0.4,0.8
					v1.9C418.3,296.1,418.5,296.3,418.7,296.1z"/>
			</g>
		</g>
		<g>
			<path class="st3" d="M406.7,256.3l19.7-11.3c1.1-0.6,2-2.4,2-3.8v-7.1c0-1.5-0.9-2.2-2-1.5l-19.7,11.3c-1.1,0.6-2,2.4-2,3.8v7.1
				C404.7,256.2,405.6,256.9,406.7,256.3z"/>
			<path class="st6" d="M427.4,232.3c0.3,0.3,0.5,0.8,0.5,1.5v7.1c0,1.5-0.9,3.2-2,3.8L406.2,256c-0.4,0.2-0.7,0.3-1,0.2
				c0.4,0.3,0.9,0.4,1.5,0.1l19.7-11.3c1.1-0.6,2-2.4,2-3.8v-7.1C428.5,233.1,428,232.4,427.4,232.3z"/>
			<g>
				<path class="st22" d="M412.7,248.6l1.8-1c0.2-0.1,0.4-0.5,0.4-0.8v-1.9c0-0.3-0.2-0.5-0.4-0.3l-1.8,1c-0.2,0.1-0.4,0.5-0.4,0.8
					v1.9C412.2,248.6,412.4,248.7,412.7,248.6z"/>
				<path class="st6" d="M418.7,245.1l1.8-1c0.2-0.1,0.4-0.5,0.4-0.8v-1.9c0-0.3-0.2-0.5-0.4-0.3l-1.8,1c-0.2,0.1-0.4,0.5-0.4,0.8
					v1.9C418.3,245.1,418.5,245.3,418.7,245.1z"/>
			</g>
		</g>
	</g>
	<g>
		<path class="st21" d="M389.6,223.5l-45.5-26.3c-1-0.6-1.8-2.2-1.8-3.5v-8.7c0-1.4,0.8-2,1.8-1.4l45.5,26.3c1,0.6,1.8,2.2,1.8,3.5
			v8.7C391.5,223.5,390.6,224.1,389.6,223.5z"/>
		<path class="st25" d="M388.3,220.5l-42.9-24.8c-0.5-0.3-0.9-1.1-0.9-1.8v-6.5c0-0.7,0.4-1,0.9-0.7l42.9,24.8
			c0.5,0.3,0.9,1.1,0.9,1.8v6.5C389.3,220.5,388.8,220.8,388.3,220.5z"/>
		<path class="st23" d="M354.3,197.6l-6.4-3.7c-0.5-0.3-0.9-1.1-0.9-1.7l0,0c0-0.7,0.4-1,0.9-0.7l6.4,3.7c0.5,0.3,0.9,1.1,0.9,1.7
			l0,0C355.3,197.6,354.8,197.9,354.3,197.6z"/>
		<path class="st3" d="M359.8,199.5c0,0.7-0.5,0.9-1,0.6c-0.6-0.3-1-1.1-1-1.8c0-0.7,0.5-0.9,1-0.6
			C359.3,198,359.8,198.9,359.8,199.5z"/>
		<path class="st3" d="M363.5,201.7c0,0.7-0.5,0.9-1,0.6c-0.6-0.3-1-1.1-1-1.8c0-0.7,0.5-0.9,1-0.6C363,200.2,363.5,201,363.5,201.7
			z"/>
		<path class="st23" d="M367.2,203.8c0,0.7-0.5,0.9-1,0.6c-0.6-0.3-1-1.1-1-1.8c0-0.7,0.5-0.9,1-0.6
			C366.7,202.3,367.2,203.1,367.2,203.8z"/>
		<path class="st3" d="M370.9,205.9c0,0.7-0.5,0.9-1,0.6c-0.6-0.3-1-1.1-1-1.8c0-0.7,0.5-0.9,1-0.6
			C370.4,204.5,370.9,205.3,370.9,205.9z"/>
		<path class="st3" d="M386.5,216.9l-2.2-1.2c-0.3-0.2-0.6-0.7-0.6-1.1v-2.3c0-0.4,0.3-0.6,0.6-0.4l2.2,1.2c0.3,0.2,0.6,0.7,0.6,1.1
			v2.3C387.1,216.9,386.8,217.1,386.5,216.9z"/>
	</g>
	<g>
		<path class="st21" d="M389.6,238.9l-45.5-26.3c-1-0.6-1.8-2.2-1.8-3.5v-8.7c0-1.4,0.8-2,1.8-1.4l45.5,26.3c1,0.6,1.8,2.2,1.8,3.5
			v8.7C391.5,238.8,390.6,239.4,389.6,238.9z"/>
		<path class="st25" d="M388.3,235.8L345.4,211c-0.5-0.3-0.9-1.1-0.9-1.8v-6.5c0-0.7,0.4-1,0.9-0.7l42.9,24.8
			c0.5,0.3,0.9,1.1,0.9,1.8v6.5C389.3,235.8,388.8,236.1,388.3,235.8z"/>
		<path class="st23" d="M354.3,212.9l-6.4-3.7c-0.5-0.3-0.9-1.1-0.9-1.7l0,0c0-0.7,0.4-1,0.9-0.7l6.4,3.7c0.5,0.3,0.9,1.1,0.9,1.7
			l0,0C355.3,212.9,354.8,213.2,354.3,212.9z"/>
		<path class="st6" d="M359.8,214.8c0,0.7-0.5,0.9-1,0.6c-0.6-0.3-1-1.1-1-1.8c0-0.7,0.5-0.9,1-0.6
			C359.3,213.4,359.8,214.2,359.8,214.8z"/>
		<path class="st3" d="M363.5,217c0,0.7-0.5,0.9-1,0.6c-0.6-0.3-1-1.1-1-1.8c0-0.7,0.5-0.9,1-0.6C363,215.5,363.5,216.3,363.5,217z"
			/>
		<path class="st23" d="M367.2,219.1c0,0.7-0.5,0.9-1,0.6c-0.6-0.3-1-1.1-1-1.8c0-0.7,0.5-0.9,1-0.6
			C366.7,217.6,367.2,218.4,367.2,219.1z"/>
		<path class="st3" d="M370.9,221.3c0,0.7-0.5,0.9-1,0.6c-0.6-0.3-1-1.1-1-1.8s0.5-0.9,1-0.6C370.4,219.8,370.9,220.6,370.9,221.3z"
			/>
		<path class="st3" d="M386.5,232.2l-2.2-1.2c-0.3-0.2-0.6-0.7-0.6-1.1v-2.3c0-0.4,0.3-0.6,0.6-0.4l2.2,1.2c0.3,0.2,0.6,0.7,0.6,1.1
			v2.3C387.1,232.2,386.8,232.4,386.5,232.2z"/>
	</g>
	<g>
		<path class="st21" d="M389.6,254.2l-45.5-26.3c-1-0.6-1.8-2.2-1.8-3.5v-8.7c0-1.4,0.8-2,1.8-1.4l45.5,26.3c1,0.6,1.8,2.2,1.8,3.5
			v8.7C391.5,254.1,390.6,254.8,389.6,254.2z"/>
		<path class="st25" d="M388.3,251.1l-42.9-24.8c-0.5-0.3-0.9-1.1-0.9-1.8V218c0-0.7,0.4-1,0.9-0.7l42.9,24.8
			c0.5,0.3,0.9,1.1,0.9,1.8v6.5C389.3,251.1,388.8,251.4,388.3,251.1z"/>
		<path class="st23" d="M354.3,228.2l-6.4-3.7c-0.5-0.3-0.9-1.1-0.9-1.7l0,0c0-0.7,0.4-1,0.9-0.7l6.4,3.7c0.5,0.3,0.9,1.1,0.9,1.7
			l0,0C355.3,228.2,354.8,228.5,354.3,228.2z"/>
		<ellipse transform="matrix(0.866 -0.5 0.5 0.866 -66.7079 210.1309)" class="st6" cx="358.8" cy="229.5" rx="0.9" ry="1.5"/>
		<ellipse transform="matrix(0.866 -0.5 0.5 0.866 -67.2808 212.2691)" class="st3" cx="362.5" cy="231.7" rx="0.9" ry="1.5"/>
		<path class="st23" d="M367.2,234.4c0,0.7-0.5,0.9-1,0.6s-1-1.1-1-1.8s0.5-0.9,1-0.6C366.7,232.9,367.2,233.8,367.2,234.4z"/>
		<path class="st3" d="M370.9,236.6c0,0.7-0.5,0.9-1,0.6c-0.6-0.3-1-1.1-1-1.8c0-0.7,0.5-0.9,1-0.6
			C370.4,235.1,370.9,235.9,370.9,236.6z"/>
		<path class="st3" d="M386.5,247.5l-2.2-1.2c-0.3-0.2-0.6-0.7-0.6-1.1v-2.3c0-0.4,0.3-0.6,0.6-0.4l2.2,1.2c0.3,0.2,0.6,0.7,0.6,1.1
			v2.3C387.1,247.5,386.8,247.7,386.5,247.5z"/>
	</g>
	<g>
		<path class="st21" d="M389.6,269.5l-45.5-26.3c-1-0.6-1.8-2.2-1.8-3.5V231c0-1.4,0.8-2,1.8-1.4l45.5,26.3c1,0.6,1.8,2.2,1.8,3.5
			v8.7C391.5,269.4,390.6,270.1,389.6,269.5z"/>
		<path class="st25" d="M388.3,266.4l-42.9-24.8c-0.5-0.3-0.9-1.1-0.9-1.8v-6.5c0-0.7,0.4-1,0.9-0.7l42.9,24.8
			c0.5,0.3,0.9,1.1,0.9,1.8v6.5C389.3,266.4,388.8,266.7,388.3,266.4z"/>
		<path class="st23" d="M354.3,243.5l-6.4-3.7c-0.5-0.3-0.9-1.1-0.9-1.7l0,0c0-0.7,0.4-1,0.9-0.7l6.4,3.7c0.5,0.3,0.9,1.1,0.9,1.7
			l0,0C355.3,243.5,354.8,243.8,354.3,243.5z"/>
		<path class="st3" d="M359.8,245.5c0,0.7-0.5,0.9-1,0.6c-0.6-0.3-1-1.1-1-1.8c0-0.7,0.5-0.9,1-0.6
			C359.3,244,359.8,244.8,359.8,245.5z"/>
		<path class="st3" d="M363.5,247.6c0,0.7-0.5,0.9-1,0.6c-0.6-0.3-1-1.1-1-1.8c0-0.7,0.5-0.9,1-0.6
			C363,246.1,363.5,246.9,363.5,247.6z"/>
		<path class="st23" d="M367.2,249.7c0,0.7-0.5,0.9-1,0.6c-0.6-0.3-1-1.1-1-1.8c0-0.7,0.5-0.9,1-0.6
			C366.7,248.3,367.2,249.1,367.2,249.7z"/>
		<path class="st3" d="M370.9,251.9c0,0.7-0.5,0.9-1,0.6c-0.6-0.3-1-1.1-1-1.8c0-0.7,0.5-0.9,1-0.6
			C370.4,250.4,370.9,251.2,370.9,251.9z"/>
		<path class="st23" d="M386.5,262.8l-2.2-1.2c-0.3-0.2-0.6-0.7-0.6-1.1v-2.3c0-0.4,0.3-0.6,0.6-0.4l2.2,1.2
			c0.3,0.2,0.6,0.7,0.6,1.1v2.3C387.1,262.8,386.8,263,386.5,262.8z"/>
	</g>
	<g>
		<path class="st21" d="M389.6,284.8l-45.5-26.3c-1-0.6-1.8-2.2-1.8-3.5v-8.7c0-1.4,0.8-2,1.8-1.4l45.5,26.3c1,0.6,1.8,2.2,1.8,3.5
			v8.7C391.5,284.8,390.6,285.4,389.6,284.8z"/>
		<path class="st25" d="M388.3,281.7L345.4,257c-0.5-0.3-0.9-1.1-0.9-1.8v-6.5c0-0.7,0.4-1,0.9-0.7l42.9,24.8
			c0.5,0.3,0.9,1.1,0.9,1.8v6.5C389.3,281.7,388.8,282,388.3,281.7z"/>
		<path class="st23" d="M354.3,258.8l-6.4-3.7c-0.5-0.3-0.9-1.1-0.9-1.7l0,0c0-0.7,0.4-1,0.9-0.7l6.4,3.7c0.5,0.3,0.9,1.1,0.9,1.7
			l0,0C355.3,258.8,354.8,259.1,354.3,258.8z"/>
		<ellipse transform="matrix(0.866 -0.5 0.5 0.866 -82.0187 214.2335)" class="st3" cx="358.8" cy="260.2" rx="0.9" ry="1.5"/>
		<ellipse transform="matrix(0.866 -0.5 0.5 0.866 -82.5916 216.3717)" class="st6" cx="362.5" cy="262.3" rx="0.9" ry="1.5"/>
		<ellipse transform="matrix(0.866 -0.5 0.5 0.866 -83.1646 218.5099)" class="st23" cx="366.2" cy="264.4" rx="0.9" ry="1.5"/>
		<path class="st6" d="M370.9,267.2c0,0.7-0.5,0.9-1,0.6c-0.6-0.3-1-1.1-1-1.8s0.5-0.9,1-0.6C370.4,265.7,370.9,266.5,370.9,267.2z"
			/>
		<path class="st23" d="M386.5,278.1l-2.2-1.2c-0.3-0.2-0.6-0.7-0.6-1.1v-2.3c0-0.4,0.3-0.6,0.6-0.4l2.2,1.2
			c0.3,0.2,0.6,0.7,0.6,1.1v2.3C387.1,278.1,386.8,278.3,386.5,278.1z"/>
	</g>
	<g>
		<path class="st21" d="M389.6,300.1l-45.5-26.3c-1-0.6-1.8-2.2-1.8-3.5v-8.7c0-1.4,0.8-2,1.8-1.4l45.5,26.3c1,0.6,1.8,2.2,1.8,3.5
			v8.7C391.5,300.1,390.6,300.7,389.6,300.1z"/>
		<path class="st25" d="M388.3,297.1l-42.9-24.8c-0.5-0.3-0.9-1.1-0.9-1.8V264c0-0.7,0.4-1,0.9-0.7l42.9,24.8
			c0.5,0.3,0.9,1.1,0.9,1.8v6.5C389.3,297,388.8,297.4,388.3,297.1z"/>
		<path class="st23" d="M354.3,274.1l-6.4-3.7c-0.5-0.3-0.9-1.1-0.9-1.7l0,0c0-0.7,0.4-1,0.9-0.7l6.4,3.7c0.5,0.3,0.9,1.1,0.9,1.7
			l0,0C355.3,274.1,354.8,274.4,354.3,274.1z"/>
		<path class="st3" d="M359.8,276.1c0,0.7-0.5,0.9-1,0.6c-0.6-0.3-1-1.1-1-1.8c0-0.7,0.5-0.9,1-0.6
			C359.3,274.6,359.8,275.4,359.8,276.1z"/>
		<path class="st3" d="M363.5,278.2c0,0.7-0.5,0.9-1,0.6c-0.6-0.3-1-1.1-1-1.8c0-0.7,0.5-0.9,1-0.6
			C363,276.7,363.5,277.6,363.5,278.2z"/>
		<path class="st23" d="M367.2,280.4c0,0.7-0.5,0.9-1,0.6c-0.6-0.3-1-1.1-1-1.8c0-0.7,0.5-0.9,1-0.6
			C366.7,278.9,367.2,279.7,367.2,280.4z"/>
		<path class="st3" d="M370.9,282.5c0,0.7-0.5,0.9-1,0.6c-0.6-0.3-1-1.1-1-1.8c0-0.7,0.5-0.9,1-0.6
			C370.4,281,370.9,281.8,370.9,282.5z"/>
		<path class="st3" d="M386.5,293.4l-2.2-1.2c-0.3-0.2-0.6-0.7-0.6-1.1v-2.3c0-0.4,0.3-0.6,0.6-0.4l2.2,1.2c0.3,0.2,0.6,0.7,0.6,1.1
			v2.3C387.1,293.4,386.8,293.6,386.5,293.4z"/>
	</g>
	<g>
		<path class="st21" d="M389.6,315.4l-45.5-26.3c-1-0.6-1.8-2.2-1.8-3.5v-8.7c0-1.4,0.8-2,1.8-1.4l45.5,26.3c1,0.6,1.8,2.2,1.8,3.5
			v8.7C391.5,315.4,390.6,316,389.6,315.4z"/>
		<path class="st25" d="M388.3,312.4l-42.9-24.8c-0.5-0.3-0.9-1.1-0.9-1.8v-6.5c0-0.7,0.4-1,0.9-0.7l42.9,24.8
			c0.5,0.3,0.9,1.1,0.9,1.8v6.5C389.3,312.4,388.8,312.7,388.3,312.4z"/>
		<path class="st23" d="M354.3,289.5l-6.4-3.7c-0.5-0.3-0.9-1.1-0.9-1.7l0,0c0-0.7,0.4-1,0.9-0.7l6.4,3.7c0.5,0.3,0.9,1.1,0.9,1.7
			l0,0C355.3,289.4,354.8,289.7,354.3,289.5z"/>
		<path class="st6" d="M361,292.2c0,1.3-0.9,1.8-2,1.1c-1.1-0.6-2-2.2-2-3.4c0-1.3,0.9-1.8,2-1.1C360.1,289.4,361,291,361,292.2z"/>
		<path class="st3" d="M368.6,296.7c0,0.7-0.5,0.9-1,0.6c-0.6-0.3-1-1.1-1-1.8c0-0.7,0.5-0.9,1-0.6
			C368.2,295.2,368.6,296,368.6,296.7z"/>
		<path class="st23" d="M372.3,298.8c0,0.7-0.5,0.9-1,0.6c-0.6-0.3-1-1.1-1-1.8c0-0.7,0.5-0.9,1-0.6
			C371.9,297.4,372.3,298.2,372.3,298.8z"/>
		<ellipse transform="matrix(0.866 -0.5 0.5 0.866 -99.9495 227.7455)" class="st3" cx="375" cy="300.4" rx="0.9" ry="1.5"/>
		<path class="st23" d="M386.5,308.7l-2.2-1.2c-0.3-0.2-0.6-0.7-0.6-1.1v-2.3c0-0.4,0.3-0.6,0.6-0.4l2.2,1.2
			c0.3,0.2,0.6,0.7,0.6,1.1v2.3C387.1,308.7,386.8,308.9,386.5,308.7z"/>
	</g>
</g>
<path class="st21" d="M313.9,303c-0.2,0-0.5-0.1-0.6-0.3c-0.2-0.3-0.1-0.7,0.2-0.9l9-5.2c1-0.6,1.7-1.7,1.7-2.9v-4.8
	c0-0.4,0.3-0.7,0.7-0.7c0.4,0,0.7,0.3,0.7,0.7v4.8c0,1.6-0.9,3.2-2.3,4l-9,5.2C314.1,302.9,314,303,313.9,303z"/>
<g>
	<g>
		<g>
			<g>
				
					<rect x="307" y="298.8" transform="matrix(0.4974 0.8675 -0.8675 0.4974 419.9515 -115.5378)" class="st21" width="5.5" height="11.8"/>
				<path class="st21" d="M316.7,302.9c0-1.2-0.9-2.7-1.9-3.4s-1.9-0.1-1.9,1.1c0,1.2,0.9,2.7,1.9,3.4
					C315.9,304.6,316.7,304.1,316.7,302.9z"/>
			</g>
			<g>
				
					<rect x="293.9" y="301.9" transform="matrix(0.4974 0.8675 -0.8675 0.4974 419.8927 -102.4143)" class="st21" width="8.9" height="18.5"/>
				<path class="st22" d="M304.9,304.3l3.5-2c1.4,1,2.6,3,2.7,4.7l-3.5,2C306.2,308,305.1,306,304.9,304.3z"/>
				<path class="st21" d="M309.5,308.4c0-2-1.4-4.4-3.1-5.4c-1.7-1-3.1-0.2-3.1,1.8c0,2,1.4,4.4,3.1,5.4
					C308.1,311.2,309.5,310.4,309.5,308.4z"/>
			</g>
		</g>
	</g>
	<path class="st23" d="M313.5,301.6c0.5-0.3,0.5-0.8,0-1c-0.5-0.3-1.3-0.3-1.8,0c-0.5,0.3-0.5,0.8,0,1
		C312.2,301.9,313,301.9,313.5,301.6z"/>
</g>
<g>
	<g>
		<path class="st2" d="M271.1,411.9l-113-65.2c-3.2-1.8-2.8-5.1,0.9-7.2L236,295c3.7-2.1,9.3-2.4,12.5-0.5l113,65.2
			c3.2,1.8,2.8,5.1-0.9,7.2l-76.9,44.4C279.9,413.5,274.3,413.7,271.1,411.9z"/>
		<path class="st21" d="M298.4,408.8c-0.1,0-0.2,0-0.3-0.1l-21.6-12.8c-0.3-0.2-0.4-0.6-0.2-0.9c0.2-0.3,0.6-0.4,0.9-0.2l21.6,12.8
			c0.3,0.2,0.4,0.6,0.2,0.9C298.9,408.7,298.6,408.8,298.4,408.8z"/>
		<path class="st3" d="M363.6,347.6l-15.4-2L248.4,288c-3.2-1.8-8.8-1.6-12.5,0.5l-70.7,40.8L156,328v5.3l0,0
			c-0.1,1.2,0.6,2.4,2.1,3.3l113,65.2c3.2,1.8,8.8,1.6,12.5-0.5l76.9-44.4c2.1-1.2,3.1-2.7,3.1-4.2l0,0V347.6z"/>
		<path class="st22" d="M288.7,311.2l-7.1-4.1h-77.9l-38.4,22.2L156,328v5.3l0,0c-0.1,1.2,0.6,2.4,2.1,3.3l113,65.2
			c1.7,1,4,1.4,6.4,1.2L288.7,311.2z"/>
		<path class="st21" d="M160.1,328.6L156,328v5.3l0,0c-0.1,1.2,0.6,2.4,2.1,3.3l2,1.1V328.6z"/>
		<path class="st26" d="M272.3,402.4c3,1.1,7.4,0.9,10.6-0.7v-11.8h-10.6V402.4z"/>
		<path class="st23" d="M271.1,396.5l-113-65.2c-3.2-1.8-2.8-5.1,0.9-7.2l76.9-44.4c3.7-2.1,9.3-2.4,12.5-0.5l113,65.2
			c3.2,1.8,2.8,5.1-0.9,7.2L283.6,396C279.9,398.2,274.3,398.4,271.1,396.5z"/>
		<path class="st6" d="M360.6,349.7l-76.9,44.4c-3.7,2.1-9.3,2.4-12.5,0.5l-113-65.2c-1-0.6-1.7-1.4-2-2.2c-0.5,1.5,0.1,3,2,4.1
			l113,65.2c3.2,1.8,8.8,1.6,12.5-0.5l76.9-44.4c2.5-1.4,3.5-3.4,2.9-5C363.1,347.7,362.1,348.8,360.6,349.7z"/>
		<g>
			<path class="st3" d="M206.2,309.7l-5.1-3c-0.4-0.2-0.4-0.7,0.1-0.9l6-3.5c0.5-0.3,1.2-0.3,1.6-0.1l5.1,3c0.4,0.2,0.4,0.7-0.1,0.9
				l-6,3.5C207.3,309.9,206.6,309.9,206.2,309.7z"/>
			<path class="st3" d="M214.1,314.3l-5.1-3c-0.4-0.2-0.4-0.7,0.1-0.9l6-3.5c0.5-0.3,1.2-0.3,1.6-0.1l5.1,3c0.4,0.2,0.4,0.7-0.1,0.9
				l-6,3.5C215.2,314.5,214.5,314.5,214.1,314.3z"/>
			<path class="st3" d="M222,318.8l-5.1-3c-0.4-0.2-0.4-0.7,0.1-0.9l6-3.5c0.5-0.3,1.2-0.3,1.6-0.1l5.1,3c0.4,0.2,0.4,0.7-0.1,0.9
				l-6,3.5C223.1,319,222.4,319.1,222,318.8z"/>
			<path class="st3" d="M232.9,315.1l-5.1-3c-0.4-0.2-0.4-0.7,0.1-0.9l5.1-2.9c0.5-0.3,1.2-0.3,1.6-0.1l5.1,3
				c0.4,0.2,0.4,0.7-0.1,0.9l-5.1,2.9C234,315.3,233.3,315.3,232.9,315.1z"/>
			<path class="st3" d="M240.8,319.6l-5.1-3c-0.4-0.2-0.4-0.7,0.1-0.9l5.1-2.9c0.5-0.3,1.2-0.3,1.6-0.1l5.1,3
				c0.4,0.2,0.4,0.7-0.1,0.9l-5.1,2.9C241.9,319.8,241.2,319.9,240.8,319.6z"/>
			<path class="st3" d="M248.7,324.2l-5.1-3c-0.4-0.2-0.4-0.7,0.1-0.9l5.1-2.9c0.5-0.3,1.2-0.3,1.6-0.1l5.1,3
				c0.4,0.2,0.4,0.7-0.1,0.9l-5.1,2.9C249.8,324.4,249.1,324.4,248.7,324.2z"/>
			<path class="st3" d="M256.6,328.7l-5.1-3c-0.4-0.2-0.4-0.7,0.1-0.9l5.1-2.9c0.5-0.3,1.2-0.3,1.6-0.1l5.1,3
				c0.4,0.2,0.4,0.7-0.1,0.9l-5.1,2.9C257.7,328.9,257,329,256.6,328.7z"/>
			<path class="st3" d="M264.5,333.3l-5.1-3c-0.4-0.2-0.4-0.7,0.1-0.9l5.1-2.9c0.5-0.3,1.2-0.3,1.6-0.1l5.1,3
				c0.4,0.2,0.4,0.7-0.1,0.9l-5.1,2.9C265.6,333.5,264.9,333.5,264.5,333.3z"/>
			<path class="st3" d="M272.4,337.9l-5.1-3c-0.4-0.2-0.4-0.7,0.1-0.9l5.1-2.9c0.5-0.3,1.2-0.3,1.6-0.1l5.1,3
				c0.4,0.2,0.4,0.7-0.1,0.9l-5.1,2.9C273.5,338.1,272.8,338.1,272.4,337.9z"/>
			<path class="st3" d="M280.3,342.4l-5.1-3c-0.4-0.2-0.4-0.7,0.1-0.9l5.1-2.9c0.5-0.3,1.2-0.3,1.6-0.1l5.1,3
				c0.4,0.2,0.4,0.7-0.1,0.9l-5.1,2.9C281.4,342.6,280.7,342.6,280.3,342.4z"/>
			<path class="st3" d="M288.2,347l-5.1-3c-0.4-0.2-0.4-0.7,0.1-0.9l5.1-2.9c0.5-0.3,1.2-0.3,1.6-0.1l5.1,3c0.4,0.2,0.4,0.7-0.1,0.9
				l-5.1,2.9C289.3,347.2,288.6,347.2,288.2,347z"/>
			<path class="st3" d="M296.1,351.5l-5.1-3c-0.4-0.2-0.4-0.7,0.1-0.9l5.1-2.9c0.5-0.3,1.2-0.3,1.6-0.1l5.1,3
				c0.4,0.2,0.4,0.7-0.1,0.9l-5.1,2.9C297.2,351.7,296.5,351.8,296.1,351.5z"/>
			<path class="st3" d="M304,356.1l-5.1-3c-0.4-0.2-0.4-0.7,0.1-0.9l5.1-2.9c0.5-0.3,1.2-0.3,1.6-0.1l5.1,3c0.4,0.2,0.4,0.7-0.1,0.9
				l-5.1,2.9C305.1,356.3,304.4,356.3,304,356.1z"/>
			<path class="st22" d="M244.5,312.9l-5.1-3c-0.4-0.2-0.4-0.7,0.1-0.9l5.1-2.9c0.5-0.3,1.2-0.3,1.6-0.1l5.1,3
				c0.4,0.2,0.4,0.7-0.1,0.9l-5.1,2.9C245.7,313.1,245,313.1,244.5,312.9z"/>
			<path class="st22" d="M236.5,308.3l-5.1-3c-0.4-0.2-0.4-0.7,0.1-0.9l5.1-2.9c0.5-0.3,1.2-0.3,1.6-0.1l5.1,3
				c0.4,0.2,0.4,0.7-0.1,0.9l-5.1,2.9C237.7,308.5,236.9,308.5,236.5,308.3z"/>
			<path class="st3" d="M228.5,303.6l-11-6.4c-0.4-0.2-0.4-0.7,0.1-0.9l5.1-2.9c0.5-0.3,1.2-0.3,1.6-0.1l11,6.4
				c0.4,0.2,0.4,0.7-0.1,0.9l-5.1,2.9C229.6,303.8,228.9,303.9,228.5,303.6z"/>
			<path class="st3" d="M234.1,298l-8.9-5.2c-0.4-0.2-0.4-0.7,0.1-0.9l5.1-2.9c0.5-0.3,1.2-0.3,1.6-0.1l8.9,5.2
				c0.4,0.2,0.4,0.7-0.1,0.9l-5.1,2.9C235.2,298.2,234.5,298.2,234.1,298z"/>
			<path class="st22" d="M252.4,317.5l-5.1-3c-0.4-0.2-0.4-0.7,0.1-0.9l5.1-2.9c0.5-0.3,1.2-0.3,1.6-0.1l5.1,3
				c0.4,0.2,0.4,0.7-0.1,0.9l-5.1,2.9C253.6,317.7,252.8,317.7,252.4,317.5z"/>
			<path class="st3" d="M260.3,322l-5.1-3c-0.4-0.2-0.4-0.7,0.1-0.9l5.1-2.9c0.5-0.3,1.2-0.3,1.6-0.1l5.1,3c0.4,0.2,0.4,0.7-0.1,0.9
				l-5.1,2.9C261.5,322.2,260.7,322.3,260.3,322z"/>
			<path class="st3" d="M268.2,326.6l-5.1-3c-0.4-0.2-0.4-0.7,0.1-0.9l5.1-2.9c0.5-0.3,1.2-0.3,1.6-0.1l5.1,3
				c0.4,0.2,0.4,0.7-0.1,0.9l-5.1,2.9C269.4,326.8,268.6,326.8,268.2,326.6z"/>
			<path class="st3" d="M276.1,331.1l-5.1-3c-0.4-0.2-0.4-0.7,0.1-0.9l5.1-2.9c0.5-0.3,1.2-0.3,1.6-0.1l5.1,3
				c0.4,0.2,0.4,0.7-0.1,0.9l-5.1,2.9C277.3,331.3,276.5,331.4,276.1,331.1z"/>
			<path class="st3" d="M284,335.7l-5.1-3c-0.4-0.2-0.4-0.7,0.1-0.9l5.1-2.9c0.5-0.3,1.2-0.3,1.6-0.1l5.1,3c0.4,0.2,0.4,0.7-0.1,0.9
				l-5.1,2.9C285.2,335.9,284.4,335.9,284,335.7z"/>
			<path class="st3" d="M291.9,340.3l-5.1-3c-0.4-0.2-0.4-0.7,0.1-0.9l5.1-2.9c0.5-0.3,1.2-0.3,1.6-0.1l5.1,3
				c0.4,0.2,0.4,0.7-0.1,0.9l-5.1,2.9C293,340.5,292.3,340.5,291.9,340.3z"/>
			<path class="st3" d="M299.8,344.8l-5.1-3c-0.4-0.2-0.4-0.7,0.1-0.9l5.1-2.9c0.5-0.3,1.2-0.3,1.6-0.1l5.1,3
				c0.4,0.2,0.4,0.7-0.1,0.9l-5.1,2.9C300.9,345,300.2,345,299.8,344.8z"/>
			<path class="st3" d="M307.7,349.4l-5.1-3c-0.4-0.2-0.4-0.7,0.1-0.9l5.1-2.9c0.5-0.3,1.2-0.3,1.6-0.1l5.1,3
				c0.4,0.2,0.4,0.7-0.1,0.9l-5.1,2.9C308.8,349.6,308.1,349.6,307.7,349.4z"/>
			<path class="st3" d="M315.6,353.9l-5.1-3c-0.4-0.2-0.4-0.7,0.1-0.9l5.1-2.9c0.5-0.3,1.2-0.3,1.6-0.1l5.1,3
				c0.4,0.2,0.4,0.7-0.1,0.9l-5.1,2.9C316.7,354.1,316,354.2,315.6,353.9z"/>
			<path class="st3" d="M329.6,362l-11.2-6.4c-0.4-0.2-0.4-0.7,0.1-0.9l5.1-2.9c0.5-0.3,1.2-0.3,1.6-0.1l11.2,6.4
				c0.4,0.2,0.4,0.7-0.1,0.9l-5.1,2.9C330.8,362.2,330.1,362.3,329.6,362z"/>
			<path class="st3" d="M345,353.2l-9.4-5.4c-0.4-0.2-0.4-0.7,0.1-0.9l5.1-2.9c0.5-0.3,1.2-0.3,1.6-0.1l9.4,5.4
				c0.4,0.2,0.4,0.7-0.1,0.9l-5.1,2.9C346.1,353.4,345.4,353.4,345,353.2z"/>
			<path class="st3" d="M266.3,316.6l-5.1-3c-0.4-0.2-0.4-0.7,0.1-0.9l5.1-2.9c0.5-0.3,1.2-0.3,1.6-0.1l5.1,3
				c0.4,0.2,0.4,0.7-0.1,0.9l-5.1,2.9C267.4,316.8,266.7,316.8,266.3,316.6z"/>
			<path class="st3" d="M258.2,311.9l-5.1-3c-0.4-0.2-0.4-0.7,0.1-0.9l5.1-2.9c0.5-0.3,1.2-0.3,1.6-0.1l5.1,3
				c0.4,0.2,0.4,0.7-0.1,0.9l-5.1,2.9C259.3,312.1,258.6,312.1,258.2,311.9z"/>
			<path class="st22" d="M250.1,307.2l-5.1-3c-0.4-0.2-0.4-0.7,0.1-0.9l5.1-2.9c0.5-0.3,1.2-0.3,1.6-0.1l5.1,3
				c0.4,0.2,0.4,0.7-0.1,0.9l-5.1,2.9C251.2,307.4,250.5,307.5,250.1,307.2z"/>
			<path class="st3" d="M242,302.5l-5.1-3c-0.4-0.2-0.4-0.7,0.1-0.9l5.1-2.9c0.5-0.3,1.2-0.3,1.6-0.1l5.1,3c0.4,0.2,0.4,0.7-0.1,0.9
				l-5.1,2.9C243.1,302.8,242.4,302.8,242,302.5z"/>
			<path class="st3" d="M274.2,321.1l-5.1-3c-0.4-0.2-0.4-0.7,0.1-0.9l5.1-2.9c0.5-0.3,1.2-0.3,1.6-0.1l5.1,3
				c0.4,0.2,0.4,0.7-0.1,0.9l-5.1,2.9C275.3,321.3,274.6,321.4,274.2,321.1z"/>
			<path class="st3" d="M282.1,325.7l-5.1-3c-0.4-0.2-0.4-0.7,0.1-0.9l5.1-2.9c0.5-0.3,1.2-0.3,1.6-0.1l5.1,3
				c0.4,0.2,0.4,0.7-0.1,0.9l-5.1,2.9C283.2,325.9,282.5,325.9,282.1,325.7z"/>
			<path class="st3" d="M290,330.2l-5.1-3c-0.4-0.2-0.4-0.7,0.1-0.9l5.1-2.9c0.5-0.3,1.2-0.3,1.6-0.1l5.1,3c0.4,0.2,0.4,0.7-0.1,0.9
				l-5.1,2.9C291.1,330.4,290.4,330.5,290,330.2z"/>
			<path class="st3" d="M297.9,334.8l-5.1-3c-0.4-0.2-0.4-0.7,0.1-0.9l5.1-2.9c0.5-0.3,1.2-0.3,1.6-0.1l5.1,3
				c0.4,0.2,0.4,0.7-0.1,0.9l-5.1,2.9C299,335,298.3,335,297.9,334.8z"/>
			<path class="st3" d="M305.7,339.4l-5.1-3c-0.4-0.2-0.4-0.7,0.1-0.9l5.1-2.9c0.5-0.3,1.2-0.3,1.6-0.1l5.1,3
				c0.4,0.2,0.4,0.7-0.1,0.9l-5.1,2.9C306.9,339.6,306.2,339.6,305.7,339.4z"/>
			<path class="st3" d="M313.6,343.9l-5.1-3c-0.4-0.2-0.4-0.7,0.1-0.9l5.1-2.9c0.5-0.3,1.2-0.3,1.6-0.1l5.1,3
				c0.4,0.2,0.4,0.7-0.1,0.9l-5.1,2.9C314.8,344.1,314.1,344.2,313.6,343.9z"/>
			<path class="st3" d="M321.5,348.5l-5.1-3c-0.4-0.2-0.4-0.7,0.1-0.9l5.1-2.9c0.5-0.3,1.2-0.3,1.6-0.1l5.1,3
				c0.4,0.2,0.4,0.7-0.1,0.9l-5.1,2.9C322.7,348.7,322,348.7,321.5,348.5z"/>
			<path class="st3" d="M329.4,353l-5.1-3c-0.4-0.2-0.4-0.7,0.1-0.9l5.1-2.9c0.5-0.3,1.2-0.3,1.6-0.1l5.1,3c0.4,0.2,0.4,0.7-0.1,0.9
				L331,353C330.6,353.2,329.8,353.3,329.4,353z"/>
			<path class="st3" d="M337.3,357.6l-5.1-3c-0.4-0.2-0.4-0.7,0.1-0.9l5.1-2.9c0.5-0.3,1.2-0.3,1.6-0.1l5.1,3
				c0.4,0.2,0.4,0.7-0.1,0.9l-5.1,2.9C338.5,357.8,337.7,357.8,337.3,357.6z"/>
			<path class="st3" d="M262.1,305.3l-5.1-3c-0.4-0.2-0.4-0.7,0.1-0.9l5.1-2.9c0.5-0.3,1.2-0.3,1.6-0.1l5.1,3
				c0.4,0.2,0.4,0.7-0.1,0.9l-5.1,2.9C263.2,305.5,262.5,305.5,262.1,305.3z"/>
			<path class="st3" d="M254.3,300.8l-5.1-3c-0.4-0.2-0.4-0.7,0.1-0.9l5.1-2.9c0.5-0.3,1.2-0.3,1.6-0.1l5.1,3
				c0.4,0.2,0.4,0.7-0.1,0.9l-5.1,2.9C255.4,301,254.7,301,254.3,300.8z"/>
			<path class="st3" d="M246.4,296.2l-5.1-3c-0.4-0.2-0.4-0.7,0.1-0.9l5.1-2.9c0.5-0.3,1.2-0.3,1.6-0.1l5.1,3
				c0.4,0.2,0.4,0.7-0.1,0.9l-5.1,2.9C247.5,296.4,246.8,296.5,246.4,296.2z"/>
			<path class="st3" d="M238.5,291.7l-5.1-3c-0.4-0.2-0.4-0.7,0.1-0.9l5.1-2.9c0.5-0.3,1.2-0.3,1.6-0.1l5.1,3
				c0.4,0.2,0.4,0.7-0.1,0.9l-5.1,2.9C239.7,291.9,238.9,291.9,238.5,291.7z"/>
			<path class="st3" d="M246.6,287l-5.1-3c-0.4-0.2-0.4-0.7,0.1-0.9l1.7-1c0.5-0.3,1.2-0.3,1.6-0.1l5.1,3c0.4,0.2,0.4,0.7-0.1,0.9
				l-1.7,1C247.7,287.2,247,287.3,246.6,287z"/>
			<path class="st3" d="M256.9,292.9l-5.1-3c-0.4-0.2-0.4-0.7,0.1-0.9l1.7-1c0.5-0.3,1.2-0.3,1.6-0.1l5.1,3c0.4,0.2,0.4,0.7-0.1,0.9
				l-1.7,1C258,293.1,257.3,293.2,256.9,292.9z"/>
			<path class="st3" d="M264.7,297.5l-5.1-3c-0.4-0.2-0.4-0.7,0.1-0.9l1.7-1c0.5-0.3,1.2-0.3,1.6-0.1l5.1,3c0.4,0.2,0.4,0.7-0.1,0.9
				l-1.7,1C265.8,297.7,265.1,297.7,264.7,297.5z"/>
			<path class="st3" d="M272.5,302l-5.1-3c-0.4-0.2-0.4-0.7,0.1-0.9l1.7-1c0.5-0.3,1.2-0.3,1.6-0.1l5.1,3c0.4,0.2,0.4,0.7-0.1,0.9
				l-1.7,1C273.6,302.2,272.9,302.2,272.5,302z"/>
			<path class="st3" d="M280.3,306.5l-5.1-3c-0.4-0.2-0.4-0.7,0.1-0.9l1.7-1c0.5-0.3,1.2-0.3,1.6-0.1l5.1,3c0.4,0.2,0.4,0.7-0.1,0.9
				l-1.7,1C281.5,306.7,280.8,306.7,280.3,306.5z"/>
			<path class="st3" d="M324,331.7l-5.1-3c-0.4-0.2-0.4-0.7,0.1-0.9l1.7-1c0.5-0.3,1.2-0.3,1.6-0.1l5.1,3c0.4,0.2,0.4,0.7-0.1,0.9
				l-1.7,1C325.2,331.9,324.4,331.9,324,331.7z"/>
			<path class="st3" d="M331.8,336.2l-5.1-3c-0.4-0.2-0.4-0.7,0.1-0.9l1.7-1c0.5-0.3,1.2-0.3,1.6-0.1l5.1,3c0.4,0.2,0.4,0.7-0.1,0.9
				l-1.7,1C333,336.4,332.3,336.5,331.8,336.2z"/>
			<path class="st3" d="M339.7,340.7l-5.1-3c-0.4-0.2-0.4-0.7,0.1-0.9l1.7-1c0.5-0.3,1.2-0.3,1.6-0.1l5.1,3c0.4,0.2,0.4,0.7-0.1,0.9
				l-1.7,1C340.8,340.9,340.1,341,339.7,340.7z"/>
			<path class="st3" d="M347.5,345.3l-5.1-3c-0.4-0.2-0.4-0.7,0.1-0.9l1.7-1c0.5-0.3,1.2-0.3,1.6-0.1l5.1,3c0.4,0.2,0.4,0.7-0.1,0.9
				l-1.7,1C348.6,345.5,347.9,345.5,347.5,345.3z"/>
			<path class="st3" d="M270,309.8l-5.1-3c-0.4-0.2-0.4-0.7,0.1-0.9l5.1-2.9c0.5-0.3,1.2-0.3,1.6-0.1l5.1,3c0.4,0.2,0.4,0.7-0.1,0.9
				l-5.1,2.9C271.1,310.1,270.4,310.1,270,309.8z"/>
			<path class="st3" d="M277.9,314.4l-5.1-3c-0.4-0.2-0.4-0.7,0.1-0.9l5.1-2.9c0.5-0.3,1.2-0.3,1.6-0.1l5.1,3
				c0.4,0.2,0.4,0.7-0.1,0.9l-5.1,2.9C279,314.6,278.3,314.6,277.9,314.4z"/>
			<path class="st3" d="M285.8,319l-5.1-3c-0.4-0.2-0.4-0.7,0.1-0.9l5.1-2.9c0.5-0.3,1.2-0.3,1.6-0.1l5.1,3c0.4,0.2,0.4,0.7-0.1,0.9
				l-5.1,2.9C286.9,319.2,286.2,319.2,285.8,319z"/>
			<path class="st3" d="M293.7,323.5l-5.1-3c-0.4-0.2-0.4-0.7,0.1-0.9l5.1-2.9c0.5-0.3,1.2-0.3,1.6-0.1l5.1,3
				c0.4,0.2,0.4,0.7-0.1,0.9l-5.1,2.9C294.8,323.7,294.1,323.8,293.7,323.5z"/>
			<path class="st3" d="M301.6,328.1l-5.1-3c-0.4-0.2-0.4-0.7,0.1-0.9l5.1-2.9c0.5-0.3,1.2-0.3,1.6-0.1l5.1,3
				c0.4,0.2,0.4,0.7-0.1,0.9l-5.1,2.9C302.7,328.3,302,328.3,301.6,328.1z"/>
			<path class="st3" d="M309.5,332.6l-5.1-3c-0.4-0.2-0.4-0.7,0.1-0.9l5.1-2.9c0.5-0.3,1.2-0.3,1.6-0.1l5.1,3
				c0.4,0.2,0.4,0.7-0.1,0.9l-5.1,2.9C310.6,332.8,309.9,332.9,309.5,332.6z"/>
			<path class="st3" d="M317.4,337.2l-5.1-3c-0.4-0.2-0.4-0.7,0.1-0.9l5.1-2.9c0.5-0.3,1.2-0.3,1.6-0.1l5.1,3
				c0.4,0.2,0.4,0.7-0.1,0.9l-5.1,2.9C318.5,337.4,317.8,337.4,317.4,337.2z"/>
			<path class="st3" d="M325.3,341.8l-5.1-3c-0.4-0.2-0.4-0.7,0.1-0.9l5.1-2.9c0.5-0.3,1.2-0.3,1.6-0.1l5.1,3
				c0.4,0.2,0.4,0.7-0.1,0.9l-5.1,2.9C326.4,342,325.7,342,325.3,341.8z"/>
			<path class="st3" d="M333.2,346.3l-5.1-3c-0.4-0.2-0.4-0.7,0.1-0.9l5.1-2.9c0.5-0.3,1.2-0.3,1.6-0.1l5.1,3
				c0.4,0.2,0.4,0.7-0.1,0.9l-5.1,2.9C334.3,346.5,333.6,346.6,333.2,346.3z"/>
			<path class="st3" d="M224.9,310.4l-15.1-8.7c-0.4-0.2-0.4-0.7,0.1-0.9l5.1-2.9c0.5-0.3,1.2-0.3,1.6-0.1l15.1,8.7
				c0.4,0.2,0.4,0.7-0.1,0.9l-5.1,2.9C226,310.6,225.3,310.6,224.9,310.4z"/>
			<path class="st3" d="M321.9,366.4l-15.1-8.7c-0.4-0.2-0.4-0.7,0.1-0.9l5.1-2.9c0.5-0.3,1.2-0.3,1.6-0.1l15.1,8.7
				c0.4,0.2,0.4,0.7-0.1,0.9l-5.1,2.9C323,366.6,322.3,366.7,321.9,366.4z"/>
			<path class="st3" d="M290.3,358.3l-5.1-3c-0.4-0.2-0.4-0.7,0.1-0.9l6-3.5c0.5-0.3,1.2-0.3,1.6-0.1l5.1,3c0.4,0.2,0.4,0.7-0.1,0.9
				l-6,3.5C291.4,358.5,290.7,358.5,290.3,358.3z"/>
			<path class="st3" d="M232.9,325.1l-8.2-4.7c-0.4-0.2-0.4-0.7,0.1-0.9l6-3.5c0.5-0.3,1.2-0.3,1.6-0.1l8.2,4.7
				c0.4,0.2,0.4,0.7-0.1,0.9l-6,3.5C234.1,325.4,233.4,325.4,232.9,325.1z"/>
			<path class="st3" d="M282.7,353.9l-8.2-4.7c-0.4-0.2-0.4-0.7,0.1-0.9l6-3.5c0.5-0.3,1.2-0.3,1.6-0.1l8.2,4.7
				c0.4,0.2,0.4,0.7-0.1,0.9l-6,3.5C283.8,354.1,283.1,354.1,282.7,353.9z"/>
			<path class="st3" d="M244.3,331.7l-8.2-4.7c-0.4-0.2-0.4-0.7,0.1-0.9l6-3.5c0.5-0.3,1.2-0.3,1.6-0.1l8.2,4.7
				c0.4,0.2,0.4,0.7-0.1,0.9l-6,3.5C245.5,331.9,244.8,332,244.3,331.7z"/>
			<path class="st3" d="M244,322.6l35.6,20.5c0.4,0.3,0.4,0.7,0,0.9l-6.2,3.6c-0.4,0.3-1.2,0.3-1.6,0L236.2,327L244,322.6z"/>
			<path class="st3" d="M312.4,366.5l5.7,3.3c0.3,0.2,0.3,0.5-0.1,0.8l-2.5,1.4c-0.4,0.2-1,0.2-1.3,0.1l-5.7-3.3
				c-0.3-0.2-0.3-0.5,0.1-0.8l2.5-1.4C311.4,366.4,312,366.3,312.4,366.5z"/>
			<path class="st3" d="M304.4,361.9l5.7,3.3c0.3,0.2,0.3,0.5-0.1,0.8l-2.5,1.4c-0.4,0.2-1,0.2-1.3,0.1l-5.7-3.3
				c-0.3-0.2-0.3-0.5,0.1-0.8l2.5-1.4C303.5,361.8,304.1,361.7,304.4,361.9z"/>
			<path class="st3" d="M296.5,357.4l5.7,3.3c0.3,0.2,0.3,0.5-0.1,0.8l-2.5,1.4c-0.4,0.2-1,0.2-1.3,0.1l-5.7-3.3
				c-0.3-0.2-0.3-0.5,0.1-0.8l2.5-1.4C295.6,357.2,296.2,357.2,296.5,357.4z"/>
			<path class="st3" d="M308.8,359.4l5.7,3.3c0.3,0.2,0.3,0.5-0.1,0.8l-2.5,1.4c-0.4,0.2-1,0.2-1.3,0.1l-5.7-3.3
				c-0.3-0.2-0.3-0.5,0.1-0.8l2.5-1.4C307.8,359.2,308.4,359.2,308.8,359.4z"/>
		</g>
	</g>
	<path class="st21" d="M241.8,372c-0.9,0-1.7-0.2-2.4-0.6l-39.5-22.8c-0.7-0.4-1.1-1-1.1-1.7c0-0.8,0.5-1.5,1.5-2.1l26.1-15.1
		c1.6-0.9,4-1,5.4-0.2l39.5,22.8c0.7,0.4,1.1,1,1.1,1.7c0,0.8-0.5,1.5-1.5,2.1l-26.1,15.1C243.9,371.7,242.8,372,241.8,372z
		 M229.4,330.2c-0.8,0-1.7,0.2-2.4,0.6l-26.1,15.1c-0.5,0.3-0.9,0.7-0.9,1c0,0.3,0.3,0.5,0.5,0.7l39.5,22.8l0,0
		c1,0.6,2.9,0.5,4.1-0.2l26.1-15.1c0.5-0.3,0.9-0.7,0.9-1c0-0.3-0.3-0.5-0.5-0.7l-39.5-22.8C230.7,330.4,230,330.2,229.4,330.2z"/>
	<g>
		<path class="st6" d="M232.6,347.2l3.9-2.2c0.4-0.2,1-0.2,1.4,0.1l0,0c0.4,0.2,0.5,0.6,0.1,0.8l-3.9,2.2c-0.4,0.2-1,0.2-1.4-0.1
			l0,0C232.3,347.7,232.3,347.4,232.6,347.2z"/>
		<path class="st6" d="M224.4,351.8l5.7-3.2c0.4-0.2,1-0.2,1.4,0.1l0,0c0.4,0.2,0.5,0.6,0.1,0.8l-5.7,3.2c-0.4,0.2-1,0.2-1.4-0.1
			l0,0C224.1,352.3,224.1,352,224.4,351.8z"/>
		<path class="st6" d="M245.4,354.3l7.4-4.1c0.4-0.2,1-0.2,1.4,0.1l0,0c0.4,0.2,0.5,0.6,0.1,0.8l-7.4,4.1c-0.4,0.2-1,0.2-1.4-0.1
			l0,0C245.1,354.8,245.1,354.5,245.4,354.3z"/>
		<path class="st6" d="M244.1,347.9l2.4-1.4c0.4-0.2,1-0.2,1.4,0.1l0,0c0.4,0.2,0.5,0.6,0.1,0.8l-2.4,1.4c-0.4,0.2-1,0.2-1.4-0.1
			l0,0C243.8,348.4,243.7,348.1,244.1,347.9z"/>
		<path class="st6" d="M238.7,343.8l1.6-0.9c0.4-0.2,1-0.2,1.4,0.1l0,0c0.4,0.2,0.5,0.6,0.1,0.8l-1.6,0.9c-0.4,0.2-1,0.2-1.4-0.1
			l0,0C238.4,344.3,238.3,344,238.7,343.8z"/>
		<path class="st6" d="M232,340.4l1.9-1.1c0.4-0.2,1-0.2,1.4,0.1l0,0c0.4,0.2,0.5,0.6,0.1,0.8l-1.9,1.1c-0.4,0.2-1,0.2-1.4-0.1l0,0
			C231.7,340.9,231.6,340.6,232,340.4z"/>
		<path class="st6" d="M224.5,344.6l5.1-2.8c0.4-0.2,1-0.2,1.4,0.1l0,0c0.4,0.2,0.5,0.6,0.1,0.8l-5.1,2.8c-0.4,0.2-1,0.2-1.4-0.1
			l0,0C224.2,345.1,224.1,344.8,224.5,344.6z"/>
		<path class="st6" d="M227.1,339.6l3.7-2c0.4-0.2,1-0.2,1.4,0.1l0,0c0.4,0.2,0.5,0.6,0.1,0.8l-3.7,2c-0.4,0.2-1,0.2-1.4-0.1l0,0
			C226.8,340.1,226.8,339.8,227.1,339.6z"/>
		<path class="st6" d="M235.1,352.9l6.5-3.6c0.4-0.2,1-0.2,1.4,0.1l0,0c0.4,0.2,0.5,0.6,0.1,0.8l-6.5,3.6c-0.4,0.2-1,0.2-1.4-0.1
			l0,0C234.8,353.5,234.8,353.1,235.1,352.9z"/>
		<path class="st6" d="M238.4,354.6l11.2-6.3c0.4-0.2,1-0.2,1.4,0.1l0,0c0.4,0.2,0.5,0.6,0.1,0.8l-11.2,6.3c-0.4,0.2-1,0.2-1.4-0.1
			l0,0C238.1,355.2,238.1,354.8,238.4,354.6z"/>
		<path class="st6" d="M236.9,348.3l6.5-3.6c0.4-0.2,1-0.2,1.4,0.1l0,0c0.4,0.2,0.5,0.6,0.1,0.8l-6.5,3.6c-0.4,0.2-1,0.2-1.4-0.1
			l0,0C236.6,348.9,236.6,348.5,236.9,348.3z"/>
		<path class="st6" d="M230.2,355.7l2.3-1.3c0.4-0.2,1-0.2,1.4,0.1l0,0c0.4,0.2,0.5,0.6,0.1,0.8l-2.3,1.3c-0.4,0.2-1,0.2-1.4-0.1
			l0,0C229.9,356.2,229.9,355.9,230.2,355.7z"/>
		<path class="st6" d="M229.3,345.5l7.8-4.3c0.4-0.2,1-0.2,1.4,0.1l0,0c0.4,0.2,0.5,0.6,0.1,0.8l-7.8,4.3c-0.4,0.2-1,0.2-1.4-0.1
			l0,0C229,346,229,345.7,229.3,345.5z"/>
	</g>
</g>
<path class="st21" d="M344.5,300.1c-0.9,0-1.7-0.2-2.5-0.7l-34.8-20.2c-1.1-0.6-1.7-1.8-1.8-3c0-1.3,0.6-2.4,1.7-3l9.6-5.8
	c0.3-0.2,0.7-0.1,0.9,0.2c0.2,0.3,0.1,0.7-0.2,0.9l-9.6,5.8c-0.7,0.4-1.1,1.1-1.1,1.9c0,0.8,0.4,1.5,1.1,1.9l34.8,20.2
	c1.2,0.7,2.6,0.7,3.8,0l12-7.3c0.3-0.2,0.7-0.1,0.9,0.2c0.2,0.3,0.1,0.7-0.2,0.9l-12,7.3C346.3,299.8,345.4,300.1,344.5,300.1z"/>
<g>
	<g>
		<polygon class="st2" points="255.1,260.5 241.2,252.5 227.4,260.5 241.2,268.5 		"/>
		<polygon class="st12" points="245.3,249.9 245.3,199.9 257.1,193.1 257.1,243.1 		"/>
		<polygon class="st11" points="245.3,199.9 233.5,193.1 233.5,243.1 245.3,249.9 		"/>
		<polygon class="st13" points="257.1,193.1 245.3,186.3 233.5,193.1 245.3,199.9 		"/>
	</g>
	<g>
		<polygon class="st14" points="257.1,252.1 245.3,245.3 245.3,249.9 257.1,256.7 		"/>
	</g>
	<g>
		<polygon class="st15" points="233.5,256.7 233.5,220.4 245.3,213.6 245.3,249.9 		"/>
		<polygon class="st16" points="233.5,220.4 221.7,213.6 221.7,249.9 233.5,256.7 		"/>
		<polygon class="st17" points="245.3,213.6 233.5,206.8 221.7,213.6 233.5,220.4 		"/>
		<polygon class="st18" points="233.5,256.7 233.5,220.4 245.3,213.6 245.3,249.9 		"/>
		<polygon class="st18" points="233.5,220.4 221.7,213.6 221.7,249.9 233.5,256.7 		"/>
		<polygon class="st1" points="245.3,213.6 233.5,206.8 221.7,213.6 233.5,220.4 		"/>
	</g>
	<g>
		<polygon class="st19" points="245.3,263.5 245.3,243.1 257.1,236.2 257.1,256.7 		"/>
		<polygon class="st20" points="245.3,243.1 233.5,236.2 233.5,256.7 245.3,263.5 		"/>
		<polygon class="st0" points="257.1,236.2 245.3,229.4 233.5,236.2 245.3,243.1 		"/>
	</g>
</g>
<path class="st3" d="M366.1,217.3c0,0-2.4-1.2-3.9,0.6c-1.5,1.8-3.6,6.1-3.7,9c-0.1,2.9,2.3,2.7,3.7,2c1.4-0.7,5.5-6.6,5.7-7.7
	c0.2-1.2-0.3-2.7-0.7-3C366.9,217.8,366.1,217.3,366.1,217.3z"/>
<path class="st23" d="M366.6,216.7l0.1,2.5c0,0.5-0.2,1-0.7,1.3c-0.4,0.2-1,0.4-1.9,0.3c-1.8-0.3-2-0.8-2.1-3.3
	C362,215,366.6,216.7,366.6,216.7z"/>
<g>
	<path class="st3" d="M357.3,212.5c0,0-2.4-1.2-3.9,0.6c-1.5,1.8-3.6,6.1-3.7,9c-0.1,2.9,2.3,2.7,3.7,2c1.4-0.7,5.5-6.6,5.7-7.7
		c0.2-1.2-0.3-2.7-0.7-3C358.1,213,357.3,212.5,357.3,212.5z"/>
	<path class="st23" d="M357.8,211.9l0.1,2.5c0,0.5-0.2,1-0.7,1.3c-0.4,0.2-1,0.4-1.9,0.3c-1.8-0.3-2-0.8-2.1-3.3
		C353.2,210.2,357.8,211.9,357.8,211.9z"/>
	<path class="st0" d="M379.3,166.2c-0.7-11.6-12.5,1.7-12.5,1.7l-8.1,7.9l-7.3,8c-1.4,1.6-2.1,3.7-1.8,5.8l3,22.5
		c0.1,1.1,1.1,1.9,2.2,1.9c0.3,0,0.7,0,1.1-0.1c2.6-0.4,2.4-2.9,2.4-2.9l-0.5-21l15.3-9.2C373,180.7,380,177.7,379.3,166.2z"/>
</g>
<path class="st0" d="M388.1,170.6c-0.7-11.6-12.5,1.7-12.5,1.7l-8.1,7.9l-7.3,8c-1.4,1.6-2.1,3.7-1.8,5.8l3,22.5
	c0.1,1.1,1.1,1.9,2.2,1.9c0.3,0,0.7,0,1.1-0.1c2.6-0.4,2.4-2.9,2.4-2.9l-0.5-21l15.3-9.2C381.8,185.1,388.8,182.2,388.1,170.6z"/>
<path class="st5" d="M381.1,133.4c9,3.7,8.8,9,8.8,9s-1.8,19.4-1.2,32.4c0.3,5.4-28.8,5.8-24.5-8.6c5.1-17.1,3.2-30.9,5.6-33
	C372.2,131.1,378.8,132.4,381.1,133.4z"/>
<path class="st4" d="M384,138.1c-0.5,1.8-2.9,2.8-5.3,2.1c-2.5-0.6-4.1-2.6-3.6-4.5c0.5-1.8,2.9-2.8,5.3-2.1
	C382.8,134.3,384.5,136.3,384,138.1z"/>
<path class="st6" d="M380.2,140.8c-0.5,0-1.1-0.1-1.6-0.2c-1.3-0.3-2.4-1-3.1-1.9c-0.8-1-1.1-2-0.8-3c0.3-1,1-1.8,2.2-2.3
	c1.1-0.4,2.4-0.5,3.7-0.2c1.3,0.3,2.4,1,3.1,1.9c0.8,0.9,1.1,2,0.8,3l0,0c-0.3,1-1,1.8-2.2,2.3C381.6,140.7,380.9,140.8,380.2,140.8
	z M378.8,133.9c-0.6,0-1.2,0.1-1.7,0.3c-0.9,0.4-1.5,1-1.7,1.7c-0.2,0.7,0,1.6,0.6,2.3c0.6,0.8,1.6,1.4,2.7,1.6
	c1.1,0.3,2.2,0.2,3.2-0.1c0.9-0.4,1.5-1,1.7-1.7v0c0.2-0.7,0-1.6-0.6-2.3c-0.6-0.8-1.6-1.4-2.7-1.6
	C379.8,133.9,379.3,133.9,378.8,133.9z"/>
<path class="st4" d="M377.5,133c0,0,0.1,0.4-0.1,3.2c0,0.9,3.1,1.7,3.9,0.9c0.8-0.8,0.5-1.7,0.7-4.7
	C382.2,129.4,377.5,133,377.5,133z"/>
<path class="st7" d="M382,132.4c0,0-0.8,2.8-4.6,3.9l0.1-2.6L382,132.4z"/>
<ellipse transform="matrix(0.5076 -0.8616 0.8616 0.5076 76.6014 387.9586)" class="st4" cx="377.7" cy="127" rx="6.9" ry="6.9"/>
<path class="st7" d="M379.3,127.2c0,0-3.8,1.6-6.4,1.6c-2.6,0-2.1-2.2-2.1-2.2l7.8-1.1L379.3,127.2z"/>
<path d="M372.1,127.6c0,0,3.3-1.4,6.2-0.8c0.7,0.1,1.3,0.5,1.8,1c0.1,0.2,0.3,0.3,0.5,0.4c0.5,0.1,1.4-2,2.4-2.1c1,0,1.7,0.7,0.8,2
	c-0.8,1.3-0.5,2.8-0.2,3c0.4,0.2,4.4-2.9,0.9-9.9c-3.5-7-12.5-3.2-13.9-1.8c0,0-1.5,1.3-2.7,0.1
	C367.9,119.6,366.6,129.7,372.1,127.6z"/>
<path class="st4" d="M384.9,156.6v5.3c0,0.6-0.3,1.2-0.7,1.6l-10.8,9.8l1.2,1.9l14.3-9.3c0.7-0.5,1.1-1.2,1.2-2l1-10.2L384.9,156.6z
	"/>
<path class="st5" d="M389.1,139.8c0,0,3.3,4.9,4.5,17.9c0,0-5.6,1.8-8.8,0.8C381.7,157.4,389.1,139.8,389.1,139.8z"/>
<path class="st27" d="M384.3,146c0,0-1.3,6.9-1.4,10.1c0,0.9,0.5,1.7,1.4,2l0,0V146z"/>
<g>
	<path class="st3" d="M381.5,180.1l-2.4-0.3l-15.4-8.9c-0.5-0.3-1.4-0.2-1.9,0.1l-10.9,6.3l-1.4-0.2v1.4l0,0c0,0.2,0.1,0.4,0.3,0.5
		l17.5,10.1c0.5,0.3,1.4,0.2,1.9-0.1l11.9-6.9c0.3-0.2,0.5-0.4,0.5-0.6l0,0V180.1z"/>
	<path class="st22" d="M369.9,174.5l-1.1-0.6h-12l-5.9,3.4l-1.4-0.2v1.4l0,0c0,0.2,0.1,0.4,0.3,0.5l17.5,10.1c0.3,0.2,0.6,0.2,1,0.2
		L369.9,174.5z"/>
	<path class="st21" d="M350,177.2l-0.6-0.1v1.4l0,0c0,0.2,0.1,0.4,0.3,0.5l0.3,0.2V177.2z"/>
	<path class="st26" d="M367.4,189.2c0.5,0.2,1.1,0.1,1.6-0.1v-2.4h-1.6V189.2z"/>
	<path class="st6" d="M367.2,187.7l-17.5-10.1c-0.5-0.3-0.4-0.8,0.1-1.1l11.9-6.9c0.6-0.3,1.4-0.4,1.9-0.1l17.5,10.1
		c0.5,0.3,0.4,0.8-0.1,1.1l-11.9,6.9C368.5,187.9,367.7,188,367.2,187.7z"/>
	<path class="st23" d="M366.9,186.2l-14.5-8.4c-0.4-0.2-0.4-0.7,0.1-0.9l6.4-3.6c0.5-0.3,1.2-0.3,1.6-0.1l14.5,8.4
		c0.4,0.2,0.4,0.7-0.1,0.9l-6.4,3.6C368,186.4,367.3,186.4,366.9,186.2z"/>
</g>
<path class="st4" d="M362.4,169.3l-0.2,1.2c-0.2,1-0.1,2.1,0.1,3.1l0.2,1.1c0.1,0.6,0.6,1.1,1.2,1.2l0,0c0.5,0.1,0.9-0.2,1-0.7
	l0.3-2.6c0,0,0.7,0.9,1,0.9s-0.4-2.6-1.1-4C364.2,167.9,362.4,169.3,362.4,169.3z"/>
<path class="st4" d="M368.3,150.2l-1.9,3.7c-0.4,0.9-0.7,1.8-0.8,2.8l-0.8,12.7l-2.5-0.1l-1.1-14.2c0-0.4,0-0.9,0.1-1.3l1.3-7.2
	L368.3,150.2z"/>
<g>
	<path class="st3" d="M366.6,188.6l-1.5-1.9l-15.4-8.9c-0.5-0.3-0.9-1.1-0.9-1.7l0-12.6l-0.9-1.2l0.8-0.5l0,0c0.2-0.1,0.4-0.1,0.6,0
		l17.4,10.1c0.5,0.3,0.9,1.1,0.9,1.7l0,13.7c0,0.4-0.1,0.6-0.3,0.7l0,0L366.6,188.6z"/>
	<path class="st22" d="M356,181.4l-1.1-0.6l-6-10.4l0-6.8l-0.9-1.2l0.8-0.5l0,0c0.2-0.1,0.4-0.1,0.6,0l17.4,10.1
		c0.3,0.2,0.5,0.4,0.7,0.8L356,181.4z"/>
	<path class="st21" d="M348.4,162.9l-0.4-0.5l0.8-0.5l0,0c0.2-0.1,0.4-0.1,0.6,0l0.3,0.2L348.4,162.9z"/>
	<path class="st26" d="M367,172.1c0.4,0.3,0.7,0.9,0.7,1.5l-1.7,1l-0.8-1.4L367,172.1z"/>
	<path class="st6" d="M366,172.5l-17.4-10.1c-0.5-0.3-0.9,0-0.9,0.7l0,13.7c0,0.7,0.4,1.4,0.9,1.7l17.4,10.1c0.5,0.3,0.9,0,0.9-0.7
		l0-13.7C366.9,173.5,366.5,172.8,366,172.5z"/>
</g>
<path class="st4" d="M374.6,175.2l-0.3,0.6c-0.3,0.7-0.8,1.2-1.5,1.6l-1.7,1.1c-0.5,0.3-1.2,0.4-1.8,0c0,0,0,0-0.1,0
	c-0.6-0.3-0.6-1.1-0.1-1.6l1.8-1.9c0,0-1,0.8-1.3,0.5c-0.2-0.2,1-1.4,1.9-1.4s1.8-0.8,1.8-0.8L374.6,175.2z"/>
<path class="st5" d="M370,133.2c0,0-6.6,7.2-9.3,13.8c0,0,2.3,4.1,7.8,5.7S370,133.2,370,133.2z"/>
<path class="st27" d="M367.3,152.3l1.1-10.4l-2.5,9.7C366.3,151.9,366.8,152.1,367.3,152.3z"/>
<path class="st6" d="M375,131.7l-1.8-0.5c0,0,0.9,1.3,2.1,1.7c1.2,0.3,1.4-0.7,1.4-0.7L375,131.7z"/>
<g>
	<path class="st2" d="M177.1,303.2l-19.9-11.5c-1.2-0.7-1.1-1.9,0.3-2.8l19.2-11.1c1.4-0.8,3.5-0.9,4.8-0.2l19.9,11.5
		c1.2,0.7,1.1,1.9-0.3,2.8L181.8,303C180.4,303.8,178.3,303.9,177.1,303.2z"/>
	<g>
		<path class="st22" d="M208,280.4L208,280.4v-8.6l-19.3,0l-6.7-3.9c-1.5-0.9-4.2-0.8-6,0.2l-6.2,3.6l-19.3,0v8.8
			c0,0.6,0.3,1.2,1,1.6l24.9,14.4c1.5,0.9,4.2,0.8,6-0.2l24.1-13.9C207.6,281.8,208.1,281.1,208,280.4z"/>
		<path class="st22" d="M179.3,267.3c-1.1,0-2.3,0.3-3.2,0.8l-6.2,3.6l-19.3,0v8.8c0,0.6,0.3,1.2,1,1.6l24.9,14.4
			c0.7,0.4,1.7,0.6,2.8,0.6V267.3z"/>
		<path class="st21" d="M152.7,271.7l-2.2,0v8.8c0,0.6,0.3,1.2,1,1.6l1.2,0.7V271.7z"/>
		<path class="st21" d="M176.9,296.8c1.3,0.6,3.2,0.5,4.8-0.1v-10h-4.8V296.8z"/>
		<path class="st23" d="M176.5,287.8l-24.9-14.4c-1.5-0.9-1.3-2.4,0.4-3.4l24.1-13.9c1.8-1,4.4-1.1,6-0.2l24.9,14.4
			c1.5,0.9,1.3,2.4-0.4,3.4l-24.1,13.9C180.7,288.5,178,288.6,176.5,287.8z"/>
		<path class="st21" d="M177,285.2l-20.9-12.1c-1.3-0.7-1.1-2,0.4-2.9l20.2-11.7c1.5-0.9,3.7-0.9,5-0.2l20.9,12.1
			c1.3,0.7,1.1,2-0.4,2.9L182,285C180.5,285.8,178.2,285.9,177,285.2z"/>
		<g>
			<path class="st23" d="M198.8,282.6c0,0.6-0.5,1.4-1,1.7c-0.6,0.3-1,0.1-1-0.6s0.5-1.4,1-1.7C198.4,281.7,198.8,282,198.8,282.6z"
				/>
			<path class="st23" d="M202.1,280.8c0,0.6-0.5,1.4-1,1.7c-0.6,0.3-1,0.1-1-0.6s0.5-1.4,1-1.7C201.6,279.9,202.1,280.1,202.1,280.8
				z"/>
			<path class="st23" d="M205.3,278.9c0,0.6-0.5,1.4-1,1.7c-0.6,0.3-1,0.1-1-0.6s0.5-1.4,1-1.7C204.9,278,205.3,278.3,205.3,278.9z"
				/>
		</g>
	</g>
	<g>
		<path class="st22" d="M208,266.6L208,266.6V258l-19.3,0l-6.7-3.9c-1.5-0.9-4.2-0.8-6,0.2l-6.2,3.6l-19.3,0v8.8
			c0,0.6,0.3,1.2,1,1.6l24.9,14.4c1.5,0.9,4.2,0.8,6-0.2l24.1-13.9C207.6,268.1,208.1,267.3,208,266.6z"/>
		<path class="st22" d="M179.3,253.6c-1.1,0-2.3,0.3-3.2,0.8l-6.2,3.6l-19.3,0v8.8c0,0.6,0.3,1.2,1,1.6l24.9,14.4
			c0.7,0.4,1.7,0.6,2.8,0.6V253.6z"/>
		<path class="st21" d="M152.7,258l-2.2,0v8.8c0,0.6,0.3,1.2,1,1.6l1.2,0.7V258z"/>
		<path class="st21" d="M176.9,283c1.3,0.6,3.2,0.5,4.8-0.1v-10h-4.8V283z"/>
		<path class="st23" d="M176.5,274l-24.9-14.4c-1.5-0.9-1.3-2.4,0.4-3.4l24.1-13.9c1.8-1,4.4-1.1,6-0.2l24.9,14.4
			c1.5,0.9,1.3,2.4-0.4,3.4l-24.1,13.9C180.7,274.8,178,274.9,176.5,274z"/>
		<path class="st21" d="M177,271.4l-20.9-12.1c-1.3-0.7-1.1-2,0.4-2.9l20.2-11.6c1.5-0.9,3.7-0.9,5-0.2l20.9,12.1
			c1.3,0.7,1.1,2-0.4,2.9L182,271.2C180.5,272.1,178.2,272.2,177,271.4z"/>
		<g>
			<path class="st23" d="M198.8,268.9c0,0.6-0.5,1.4-1,1.7c-0.6,0.3-1,0.1-1-0.6s0.5-1.4,1-1.7C198.4,268,198.8,268.2,198.8,268.9z"
				/>
			<path class="st23" d="M202.1,267c0,0.6-0.5,1.4-1,1.7c-0.6,0.3-1,0.1-1-0.6s0.5-1.4,1-1.7C201.6,266.1,202.1,266.4,202.1,267z"/>
			<path class="st23" d="M205.3,265.1c0,0.6-0.5,1.4-1,1.7c-0.6,0.3-1,0.1-1-0.6s0.5-1.4,1-1.7C204.9,264.2,205.3,264.5,205.3,265.1
				z"/>
		</g>
	</g>
	<g>
		<path class="st22" d="M208,252.9L208,252.9v-8.6l-19.3,0l-6.7-3.9c-1.5-0.9-4.2-0.8-6,0.2l-6.2,3.6l-19.3,0v8.8
			c0,0.6,0.3,1.2,1,1.6l24.9,14.4c1.5,0.9,4.2,0.8,6-0.2l24.1-13.9C207.6,254.3,208.1,253.6,208,252.9z"/>
		<path class="st22" d="M179.3,239.8c-1.1,0-2.3,0.3-3.2,0.8l-6.2,3.6l-19.3,0v8.8c0,0.6,0.3,1.2,1,1.6l24.9,14.4
			c0.7,0.4,1.7,0.6,2.8,0.6V239.8z"/>
		<path class="st21" d="M152.7,244.2l-2.2,0v8.8c0,0.6,0.3,1.2,1,1.6l1.2,0.7V244.2z"/>
		<path class="st21" d="M176.9,269.3c1.3,0.6,3.2,0.5,4.8-0.1v-10h-4.8V269.3z"/>
		<path class="st23" d="M176.5,260.3l-24.9-14.4c-1.5-0.9-1.3-2.4,0.4-3.4l24.1-13.9c1.8-1,4.4-1.1,6-0.2l24.9,14.4
			c1.5,0.9,1.3,2.4-0.4,3.4L182.5,260C180.7,261,178,261.1,176.5,260.3z"/>
		<path class="st21" d="M177,257.7l-20.9-12.1c-1.3-0.7-1.1-2,0.4-2.9l20.2-11.7c1.5-0.9,3.7-0.9,5-0.2l20.9,12.1
			c1.3,0.7,1.1,2-0.4,2.9L182,257.5C180.5,258.3,178.2,258.4,177,257.7z"/>
		<g>
			<path class="st23" d="M198.8,255.1c0,0.6-0.5,1.4-1,1.7c-0.6,0.3-1,0.1-1-0.6c0-0.6,0.5-1.4,1-1.7
				C198.4,254.2,198.8,254.5,198.8,255.1z"/>
			<path class="st23" d="M202.1,253.3c0,0.6-0.5,1.4-1,1.7c-0.6,0.3-1,0.1-1-0.6c0-0.6,0.5-1.4,1-1.7
				C201.6,252.4,202.1,252.6,202.1,253.3z"/>
			<path class="st23" d="M205.3,251.4c0,0.6-0.5,1.4-1,1.7c-0.6,0.3-1,0.1-1-0.6c0-0.6,0.5-1.4,1-1.7
				C204.9,250.5,205.3,250.8,205.3,251.4z"/>
		</g>
	</g>
	<g>
		<path class="st22" d="M208,239.1L208,239.1v-8.6l-19.3,0l-6.7-3.9c-1.5-0.9-4.2-0.8-6,0.2l-6.2,3.6l-19.3,0v8.8
			c0,0.6,0.3,1.2,1,1.6l24.9,14.4c1.5,0.9,4.2,0.8,6-0.2l24.1-13.9C207.6,240.6,208.1,239.8,208,239.1z"/>
		<path class="st22" d="M179.3,226.1c-1.1,0-2.3,0.3-3.2,0.8l-6.2,3.6l-19.3,0v8.8c0,0.6,0.3,1.2,1,1.6l24.9,14.4
			c0.7,0.4,1.7,0.6,2.8,0.6V226.1z"/>
		<path class="st21" d="M152.7,230.5l-2.2,0v8.8c0,0.6,0.3,1.2,1,1.6l1.2,0.7V230.5z"/>
		<path class="st21" d="M176.9,255.5c1.3,0.6,3.2,0.5,4.8-0.1v-10h-4.8V255.5z"/>
		<path class="st23" d="M176.5,246.5l-24.9-14.4c-1.5-0.9-1.3-2.4,0.4-3.4l24.1-13.9c1.8-1,4.4-1.1,6-0.2l24.9,14.4
			c1.5,0.9,1.3,2.4-0.4,3.4l-24.1,13.9C180.7,247.3,178,247.4,176.5,246.5z"/>
		<path class="st21" d="M177,243.9l-20.9-12.1c-1.3-0.7-1.1-2,0.4-2.9l20.2-11.7c1.5-0.9,3.7-0.9,5-0.2l20.9,12.1
			c1.3,0.7,1.1,2-0.4,2.9L182,243.7C180.5,244.6,178.2,244.7,177,243.9z"/>
		<g>
			<path class="st23" d="M198.8,241.4c0,0.6-0.5,1.4-1,1.7c-0.6,0.3-1,0.1-1-0.6c0-0.6,0.5-1.4,1-1.7
				C198.4,240.5,198.8,240.7,198.8,241.4z"/>
			<path class="st23" d="M202.1,239.5c0,0.6-0.5,1.4-1,1.7c-0.6,0.3-1,0.1-1-0.6c0-0.6,0.5-1.4,1-1.7
				C201.6,238.6,202.1,238.9,202.1,239.5z"/>
			<path class="st23" d="M205.3,237.6c0,0.6-0.5,1.4-1,1.7c-0.6,0.3-1,0.1-1-0.6c0-0.6,0.5-1.4,1-1.7
				C204.9,236.7,205.3,237,205.3,237.6z"/>
		</g>
	</g>
	<g>
		<path class="st22" d="M208,225.4L208,225.4v-8.6l-19.3,0l-6.7-3.9c-1.5-0.9-4.2-0.8-6,0.2l-6.2,3.6l-19.3,0v8.8
			c0,0.6,0.3,1.2,1,1.6l24.9,14.4c1.5,0.9,4.2,0.8,6-0.2l24.1-13.9C207.6,226.8,208.1,226.1,208,225.4z"/>
		<path class="st22" d="M179.3,212.3c-1.1,0-2.3,0.3-3.2,0.8l-6.2,3.6l-19.3,0v8.8c0,0.6,0.3,1.2,1,1.6l24.9,14.4
			c0.7,0.4,1.7,0.6,2.8,0.6V212.3z"/>
		<path class="st21" d="M152.7,216.7l-2.2,0v8.8c0,0.6,0.3,1.2,1,1.6l1.2,0.7V216.7z"/>
		<path class="st21" d="M176.9,241.8c1.3,0.6,3.2,0.5,4.8-0.1v-10h-4.8V241.8z"/>
		<path class="st23" d="M176.5,232.8l-24.9-14.4c-1.5-0.9-1.3-2.4,0.4-3.4l24.1-13.9c1.8-1,4.4-1.1,6-0.2l24.9,14.4
			c1.5,0.9,1.3,2.4-0.4,3.4l-24.1,13.9C180.7,233.5,178,233.6,176.5,232.8z"/>
		<path class="st21" d="M177,230.2l-20.9-12.1c-1.3-0.7-1.1-2,0.4-2.9l20.2-11.7c1.5-0.9,3.7-0.9,5-0.2l20.9,12.1
			c1.3,0.7,1.1,2-0.4,2.9L182,230C180.5,230.8,178.2,230.9,177,230.2z"/>
		<g>
			
				<rect x="187.1" y="231" transform="matrix(0.8659 -0.5002 0.5002 0.8659 -89.7839 127.4966)" class="st6" width="11.6" height="0.4"/>
			<path class="st23" d="M198.8,227.6c0,0.6-0.5,1.4-1,1.7c-0.6,0.3-1,0.1-1-0.6s0.5-1.4,1-1.7C198.4,226.7,198.8,227,198.8,227.6z"
				/>
			<path class="st23" d="M202.1,225.8c0,0.6-0.5,1.4-1,1.7c-0.6,0.3-1,0.1-1-0.6s0.5-1.4,1-1.7C201.6,224.9,202.1,225.1,202.1,225.8
				z"/>
			<path class="st23" d="M205.3,223.9c0,0.6-0.5,1.4-1,1.7c-0.6,0.3-1,0.1-1-0.6c0-0.6,0.5-1.4,1-1.7
				C204.9,223,205.3,223.3,205.3,223.9z"/>
		</g>
	</g>
	<g>
		<path class="st22" d="M208,211.5L208,211.5v-8.6l-19.3,0l-6.7-3.9c-1.5-0.9-4.2-0.8-6,0.2l-6.2,3.6l-19.3,0v8.8
			c0,0.6,0.3,1.2,1,1.6l24.9,14.4c1.5,0.9,4.2,0.8,6-0.2l24.1-13.9C207.6,213,208.1,212.2,208,211.5z"/>
		<path class="st22" d="M179.3,198.5c-1.1,0-2.3,0.3-3.2,0.8l-6.2,3.6l-19.3,0v8.8c0,0.6,0.3,1.2,1,1.6l24.9,14.4
			c0.7,0.4,1.7,0.6,2.8,0.6V198.5z"/>
		<path class="st21" d="M152.7,202.9l-2.2,0v8.8c0,0.6,0.3,1.2,1,1.6l1.2,0.7V202.9z"/>
		<path class="st21" d="M176.9,227.9c1.3,0.6,3.2,0.5,4.8-0.1v-10h-4.8V227.9z"/>
		<path class="st23" d="M176.5,218.9l-24.9-14.4c-1.5-0.9-1.3-2.4,0.4-3.4l24.1-13.9c1.8-1,4.4-1.1,6-0.2l24.9,14.4
			c1.5,0.9,1.3,2.4-0.4,3.4l-24.1,13.9C180.7,219.7,178,219.8,176.5,218.9z"/>
		<path class="st6" d="M206.6,203.1L182.5,217c-1.8,1-4.4,1.1-6,0.2l-24.9-14.4c-0.3-0.2-0.6-0.4-0.8-0.7c-0.5,0.8-0.3,1.8,0.8,2.4
			l24.9,14.4c1.5,0.9,4.2,0.8,6-0.2l24.1-13.9c1.4-0.8,1.8-1.9,1.2-2.8C207.5,202.4,207.1,202.8,206.6,203.1z"/>
		<g>
			<path class="st23" d="M198.8,213.8c0,0.6-0.5,1.4-1,1.7c-0.6,0.3-1,0.1-1-0.6s0.5-1.4,1-1.7C198.4,212.9,198.8,213.2,198.8,213.8
				z"/>
			<path class="st23" d="M188.9,219.2c0,0.6-0.5,1.4-1,1.7c-0.6,0.3-1,0.1-1-0.6c0-0.6,0.5-1.4,1-1.7
				C188.5,218.3,188.9,218.6,188.9,219.2z"/>
			<path class="st6" d="M188.9,233.5c0,0.6-0.5,1.4-1,1.7c-0.6,0.3-1,0.1-1-0.6c0-0.6,0.5-1.4,1-1.7
				C188.5,232.6,188.9,232.9,188.9,233.5z"/>
			<path class="st23" d="M202.1,211.9c0,0.6-0.5,1.4-1,1.7c-0.6,0.3-1,0.1-1-0.6c0-0.6,0.5-1.4,1-1.7
				C201.6,211,202.1,211.3,202.1,211.9z"/>
			<path class="st23" d="M205.3,210.1c0,0.6-0.5,1.4-1,1.7c-0.6,0.3-1,0.1-1-0.6c0-0.6,0.5-1.4,1-1.7
				C204.9,209.1,205.3,209.4,205.3,210.1z"/>
		</g>
		<g>
			<path class="st21" d="M178,210l-11.7-6.7c-0.7-0.4-0.6-1.1,0.2-1.6l11.3-6.5c0.8-0.5,2.1-0.5,2.8-0.1l11.7,6.7
				c0.7,0.4,0.6,1.1-0.2,1.6l-11.3,6.5C180,210.4,178.7,210.4,178,210z"/>
			<path class="st23" d="M179.1,204.3l-1.6-0.9c-0.1-0.1-0.1-0.2,0-0.2l1.6-0.9c0.1-0.1,0.3-0.1,0.4,0l1.6,0.9
				c0.1,0.1,0.1,0.2,0,0.2l-1.6,0.9C179.4,204.4,179.2,204.4,179.1,204.3z"/>
			<path class="st22" d="M166.3,203.3L166.3,203.3c0.1,0,0.1-0.1,0.2-0.1l11.3-6.5c0.8-0.5,2.1-0.5,2.8-0.1l11.6,6.7
				c0.7-0.5,0.7-1.1,0-1.5l-11.7-6.7c-0.7-0.4-2-0.4-2.8,0.1l-11.3,6.5C165.7,202.1,165.6,202.8,166.3,203.3z"/>
		</g>
	</g>
	<g>
		<path class="st23" d="M175.5,221c0,0.7-0.5,1-1.1,0.6c-0.6-0.3-1.1-1.2-1.1-1.8c0-0.7,0.5-1,1.1-0.6
			C175.1,219.5,175.5,220.3,175.5,221z"/>
		<path class="st21" d="M172.3,219.1c0,0.7-0.5,1-1.1,0.6c-0.6-0.3-1.1-1.2-1.1-1.8c0-0.7,0.5-1,1.1-0.6
			C171.8,217.6,172.3,218.4,172.3,219.1z"/>
		<path class="st23" d="M175.5,224.9c0,0.7-0.5,1-1.1,0.6c-0.6-0.3-1.1-1.2-1.1-1.8c0-0.7,0.5-1,1.1-0.6
			C175.1,223.4,175.5,224.3,175.5,224.9z"/>
		<path class="st23" d="M172.3,223c0,0.7-0.5,1-1.1,0.6c-0.6-0.3-1.1-1.2-1.1-1.8c0-0.7,0.5-1,1.1-0.6
			C171.8,221.5,172.3,222.4,172.3,223z"/>
	</g>
	<g>
		<path class="st23" d="M175.5,234.6c0,0.7-0.5,1-1.1,0.6c-0.6-0.3-1.1-1.2-1.1-1.8s0.5-1,1.1-0.6
			C175.1,233.1,175.5,233.9,175.5,234.6z"/>
		<path class="st23" d="M172.3,232.7c0,0.7-0.5,1-1.1,0.6c-0.6-0.3-1.1-1.2-1.1-1.8c0-0.7,0.5-1,1.1-0.6
			C171.8,231.2,172.3,232,172.3,232.7z"/>
		<path class="st21" d="M175.5,238.6c0,0.7-0.5,1-1.1,0.6c-0.6-0.3-1.1-1.2-1.1-1.8c0-0.7,0.5-1,1.1-0.6
			C175.1,237.1,175.5,237.9,175.5,238.6z"/>
		<path class="st23" d="M172.3,236.7c0,0.7-0.5,1-1.1,0.6c-0.6-0.3-1.1-1.2-1.1-1.8c0-0.7,0.5-1,1.1-0.6
			C171.8,235.2,172.3,236,172.3,236.7z"/>
	</g>
	<g>
		<path class="st23" d="M175.5,248.3c0,0.7-0.5,1-1.1,0.6c-0.6-0.3-1.1-1.2-1.1-1.8c0-0.7,0.5-1,1.1-0.6
			C175.1,246.8,175.5,247.6,175.5,248.3z"/>
		<path class="st21" d="M172.3,246.4c0,0.7-0.5,1-1.1,0.6c-0.6-0.3-1.1-1.2-1.1-1.8c0-0.7,0.5-1,1.1-0.6
			C171.8,244.9,172.3,245.7,172.3,246.4z"/>
		<path class="st23" d="M175.5,252.3c0,0.7-0.5,1-1.1,0.6c-0.6-0.3-1.1-1.2-1.1-1.8c0-0.7,0.5-1,1.1-0.6
			C175.1,250.8,175.5,251.6,175.5,252.3z"/>
		<path class="st21" d="M172.3,250.4c0,0.7-0.5,1-1.1,0.6c-0.6-0.3-1.1-1.2-1.1-1.8c0-0.7,0.5-1,1.1-0.6
			C171.8,248.9,172.3,249.7,172.3,250.4z"/>
	</g>
	<g>
		<path class="st21" d="M175.5,262.1c0,0.7-0.5,1-1.1,0.6c-0.6-0.3-1.1-1.2-1.1-1.8c0-0.7,0.5-1,1.1-0.6
			C175.1,260.6,175.5,261.4,175.5,262.1z"/>
		<path class="st23" d="M172.3,260.2c0,0.7-0.5,1-1.1,0.6c-0.6-0.3-1.1-1.2-1.1-1.8c0-0.7,0.5-1,1.1-0.6
			C171.8,258.7,172.3,259.5,172.3,260.2z"/>
		<path class="st23" d="M175.5,266.1c0,0.7-0.5,1-1.1,0.6c-0.6-0.3-1.1-1.2-1.1-1.8c0-0.7,0.5-1,1.1-0.6
			C175.1,264.6,175.5,265.4,175.5,266.1z"/>
		<path class="st21" d="M172.3,264.2c0,0.7-0.5,1-1.1,0.6c-0.6-0.3-1.1-1.2-1.1-1.8s0.5-1,1.1-0.6
			C171.8,262.7,172.3,263.5,172.3,264.2z"/>
	</g>
	<g>
		<path class="st21" d="M175.5,275.8c0,0.7-0.5,1-1.1,0.6c-0.6-0.3-1.1-1.2-1.1-1.8c0-0.7,0.5-1,1.1-0.6
			C175.1,274.3,175.5,275.1,175.5,275.8z"/>
		<path class="st23" d="M172.3,273.9c0,0.7-0.5,1-1.1,0.6c-0.6-0.3-1.1-1.2-1.1-1.8c0-0.7,0.5-1,1.1-0.6
			C171.8,272.4,172.3,273.2,172.3,273.9z"/>
		<path class="st21" d="M175.5,279.7c0,0.7-0.5,1-1.1,0.6c-0.6-0.3-1.1-1.2-1.1-1.8c0-0.7,0.5-1,1.1-0.6
			C175.1,278.2,175.5,279.1,175.5,279.7z"/>
		<path class="st23" d="M172.3,277.9c0,0.7-0.5,1-1.1,0.6c-0.6-0.3-1.1-1.2-1.1-1.8c0-0.7,0.5-1,1.1-0.6
			C171.8,276.4,172.3,277.2,172.3,277.9z"/>
	</g>
	<g>
		<path class="st23" d="M175.5,289.6c0,0.7-0.5,1-1.1,0.6c-0.6-0.3-1.1-1.2-1.1-1.8c0-0.7,0.5-1,1.1-0.6
			C175.1,288.1,175.5,288.9,175.5,289.6z"/>
		<path class="st21" d="M172.3,287.7c0,0.7-0.5,1-1.1,0.6c-0.6-0.3-1.1-1.2-1.1-1.8c0-0.7,0.5-1,1.1-0.6
			C171.8,286.2,172.3,287.1,172.3,287.7z"/>
		<path class="st23" d="M175.5,293.6c0,0.7-0.5,1-1.1,0.6c-0.6-0.3-1.1-1.2-1.1-1.8s0.5-1,1.1-0.6
			C175.1,292.1,175.5,292.9,175.5,293.6z"/>
		<path class="st23" d="M172.3,291.7c0,0.7-0.5,1-1.1,0.6c-0.6-0.3-1.1-1.2-1.1-1.8c0-0.7,0.5-1,1.1-0.6
			C171.8,290.2,172.3,291,172.3,291.7z"/>
	</g>
</g>
<g>
	<path class="st2" d="M450.9,358.2c-9.2-5.3-24.2-5.3-33.5,0c-9.2,5.3-9.2,14,0,19.3c9.2,5.3,24.2,5.3,33.5,0
		C460.1,372.2,460.1,363.5,450.9,358.2z M441.8,372.3c-4.2,2.5-11.1,2.5-15.4,0c-4.2-2.5-4.2-6.4,0-8.9c4.2-2.5,11.1-2.5,15.4,0
		C446.1,365.9,446.1,369.8,441.8,372.3z"/>
	<g>
		<g>
			<path class="st19" d="M413.9,350.9l8.4,0.1c0.6-0.8,1.5-1.6,2.7-2.2c4.6-2.7,11.9-2.9,17-0.6l5-4.7l7.7,0.1
				c-0.4-0.2-0.8-0.5-1.2-0.7c-10.7-6.2-28.1-6.2-38.9,0c-2,1.1-3.6,2.4-4.8,3.8L413.9,350.9z"/>
			<polygon class="st20" points="454.8,331.3 454.8,343.5 447,343.4 447,331.1 			"/>
			<polygon class="st19" points="442,335.9 442,348.1 447,343.4 447,331.1 			"/>
			<path class="st19" d="M422.4,338.7V351l11.1-9l8.6,6.2v-12.3l-7.9-3.8c0,0-10.8,3.3-11.4,3.5
				C422.2,335.6,422.4,338.7,422.4,338.7z"/>
			<polygon class="st19" points="413.9,338.6 413.9,350.9 422.4,351 422.4,338.7 			"/>
			<polygon class="st20" points="409.9,334.3 409.9,346.6 413.9,350.9 413.9,338.6 			"/>
			<path class="st0" d="M413.9,338.6l8.4,0.1c0.6-0.8,1.5-1.6,2.7-2.2c4.6-2.7,11.9-2.9,17-0.6l5-4.7l7.7,0.1
				c-0.4-0.2-0.8-0.5-1.2-0.7c-10.7-6.2-28.1-6.2-38.9,0c-2,1.1-3.6,2.4-4.8,3.8L413.9,338.6z"/>
		</g>
		<g>
			<path class="st18" d="M444.6,337.4v11.3l7.3-1.8c0,0-0.4-6.6-0.6-6.8C451.1,339.9,444.6,337.4,444.6,337.4z"/>
			<g>
				<path class="st18" d="M439,348.6v12.3l0.8,0.8l5.2-3c0,0-0.8-9.4-0.9-9.5C444,349,439,348.6,439,348.6z"/>
				<path class="st18" d="M449,345.5l-4.4,4.2c3.7,2.9,3.2,7-1.3,9.6c-1.2,0.7-2.7,1.3-4.2,1.6l4.6,4.9l-4,3.8c5.1-0.6,10-2,14-4.3
					c9.2-5.3,10.5-13.5,3.9-19.6L449,345.5z"/>
				<polygon class="st18" points="439.6,357.3 439.6,369.6 449.6,365.7 461.6,354.2 461.6,341.2 448.8,351.3 				"/>
				<path class="st1" d="M449,333.2l-4.4,4.2c3.7,2.9,3.2,7-1.3,9.6c-1.2,0.7-2.7,1.3-4.2,1.6l4.6,4.9l-4,3.8c5.1-0.6,10-2,14-4.3
					c9.2-5.3,10.5-13.5,3.9-19.6L449,333.2z"/>
			</g>
		</g>
		<g>
			<path class="st11" d="M439.5,365.7l-4-4.3c-3.7,0.2-7.6-0.5-10.5-2.1c-3-1.7-4.2-4-3.7-6.3l-9.6-0.1l-3.7-3.9
				c-3.2,5.5-1,11.9,6.6,16.3c5.6,3.2,13,4.8,20.4,4.6L439.5,365.7z"/>
			<polygon class="st11" points="435.1,357.6 435.1,369.9 406.7,354.1 406.7,341.8 410.8,343.5 			"/>
			<polygon class="st9" points="439.5,353.4 439.5,365.7 435.1,369.9 435.1,357.6 			"/>
			<path class="st13" d="M439.5,353.4l-4-4.3c-3.7,0.2-7.6-0.5-10.5-2.1c-3-1.7-4.2-4-3.7-6.3l-9.6-0.1l-3.7-3.9
				c-3.2,5.5-1,11.9,6.6,16.3c5.6,3.2,13,4.8,20.4,4.6L439.5,353.4z"/>
		</g>
	</g>
</g>
<g>
	<g>
		<path class="st18" d="M208,170.2l-21.7-12.5c-0.4-0.2-0.8-0.3-1.1-0.1c0,0,0,0,0,0l-2.1,1.2c0,0,0.9,0.3,1.5,0.5v15.8
			c0,1.3,0.8,2.8,1.7,3.3l20.7,12v1.9l2.1-1.2l0,0c0.4-0.2,0.6-0.7,0.6-1.4v-16.1C209.7,172.3,208.9,170.8,208,170.2z"/>
		<path class="st1" d="M205.8,192.2l-21.7-12.5c-1-0.6-1.7-2.1-1.7-3.3v-16.1c0-1.3,0.8-1.9,1.7-1.3l21.7,12.5
			c1,0.6,1.7,2.1,1.7,3.3v16.1C207.6,192.2,206.8,192.8,205.8,192.2z"/>
	</g>
	<g>
		<path class="st6" d="M191.4,174.2c0,0.9-0.7,1.3-1.5,0.8c-0.8-0.5-1.5-1.6-1.5-2.5s0.7-1.3,1.5-0.8
			C190.8,172.1,191.4,173.2,191.4,174.2z"/>
		<path class="st6" d="M195.9,176.7c0,0.9-0.7,1.3-1.5,0.8c-0.8-0.5-1.5-1.6-1.5-2.5c0-0.9,0.7-1.3,1.5-0.8
			C195.2,174.6,195.9,175.8,195.9,176.7z"/>
		<path class="st6" d="M200.3,179.3c0,0.9-0.7,1.3-1.5,0.8c-0.8-0.5-1.5-1.6-1.5-2.5c0-0.9,0.7-1.3,1.5-0.8
			C199.6,177.2,200.3,178.3,200.3,179.3z"/>
	</g>
</g>
<g>
	<g>
		<path class="st21" d="M195.6,149.9l-21.7-12.5c-0.4-0.2-0.8-0.3-1.1-0.1l0,0l-2.1,1.2c0,0,0.9,0.3,1.5,0.5v15.8
			c0,1.3,0.8,2.8,1.7,3.3l20.7,12v1.9l2.1-1.2l0,0c0.4-0.2,0.6-0.7,0.6-1.4v-16.1C197.4,152,196.6,150.5,195.6,149.9z"/>
		<path class="st23" d="M193.5,172l-21.7-12.5c-1-0.6-1.7-2.1-1.7-3.3V140c0-1.3,0.8-1.9,1.7-1.3l21.7,12.5c1,0.6,1.7,2.1,1.7,3.3
			v16.1C195.2,171.9,194.4,172.5,193.5,172z"/>
	</g>
	<g>
		<path class="st6" d="M179.1,153.9c0,0.9-0.7,1.3-1.5,0.8c-0.8-0.5-1.5-1.6-1.5-2.5c0-0.9,0.7-1.3,1.5-0.8
			C178.4,151.8,179.1,152.9,179.1,153.9z"/>
		<path class="st6" d="M183.5,156.4c0,0.9-0.7,1.3-1.5,0.8c-0.8-0.5-1.5-1.6-1.5-2.5c0-0.9,0.7-1.3,1.5-0.8
			C182.9,154.4,183.5,155.5,183.5,156.4z"/>
		<path class="st6" d="M187.9,159c0,0.9-0.7,1.3-1.5,0.8c-0.8-0.5-1.5-1.6-1.5-2.5s0.7-1.3,1.5-0.8
			C187.3,156.9,187.9,158.1,187.9,159z"/>
	</g>
</g>
<g>
	<path class="st20" d="M140.8,321.8l-21.7-12.5c-0.4-0.2-0.8-0.3-1.1-0.1c0,0,0,0,0,0l-2.1,1.2c0,0,0.9,0.3,1.5,0.5v15.8
		c0,1.3,0.8,2.8,1.7,3.3l20.7,12v1.9l2.1-1.2l0,0c0.4-0.2,0.6-0.7,0.6-1.4v-16.1C142.5,323.9,141.8,322.4,140.8,321.8z"/>
	<path class="st19" d="M142,342.7L142,342.7c0.3-0.2,0.6-0.7,0.6-1.4v-16.1c0-0.6-0.2-1.3-0.5-1.9l-17.4,10l15.2,8.8v1.9L142,342.7z
		"/>
	<path class="st0" d="M138.7,343.9L117,331.3c-1-0.6-1.7-2.1-1.7-3.3v-16.1c0-1.3,0.8-1.9,1.7-1.3l21.7,12.5c1,0.6,1.7,2.1,1.7,3.3
		v16.1C140.4,343.8,139.6,344.4,138.7,343.9z"/>
</g>
<g>
	<g>
		<g>
			<g>
				
					<rect x="385.8" y="321" transform="matrix(-0.632 0.775 -0.775 -0.632 887.4515 232.3092)" class="st21" width="5.5" height="11.8"/>
				<path class="st21" d="M392.8,332.8c1.2-0.4,2.2-1.8,2.4-3c0.2-1.2-0.6-1.8-1.7-1.4c-1.2,0.4-2.2,1.8-2.4,3
					C390.9,332.6,391.6,333.2,392.8,332.8z"/>
			</g>
			<g>
				
					<rect x="376.5" y="314.6" transform="matrix(-0.632 0.775 -0.775 -0.632 870.1456 228.0614)" class="st21" width="8.9" height="12.1"/>
				<path class="st22" d="M387.2,322.2l3.1,2.5c-0.4,1.7-1.9,3.5-3.5,4.2l-3.1-2.5C384.2,324.8,385.6,323,387.2,322.2z"/>
				
					<ellipse transform="matrix(0.632 -0.775 0.775 0.632 -109.5224 418.2206)" class="st21" cx="385.6" cy="324.4" rx="4.4" ry="2.6"/>
				<path class="st21" d="M375.7,320.4c1.9-0.7,3.6-2.9,4-4.9c0.3-2-0.9-3-2.8-2.3c-1.9,0.7-3.6,2.9-4,4.9
					C372.6,320.1,373.8,321.1,375.7,320.4z"/>
				<path class="st23" d="M375.9,318.8c1.1-0.4,2.1-1.6,2.2-2.7c0.2-1.1-0.5-1.7-1.6-1.3c-1.1,0.4-2.1,1.6-2.2,2.7
					C374.2,318.7,374.9,319.2,375.9,318.8z"/>
			</g>
		</g>
	</g>
	<path class="st23" d="M392.8,329.3c0.4,0.4,0.9,0.2,1-0.4c0.1-0.6-0.2-1.3-0.6-1.7c-0.4-0.4-0.9-0.2-1,0.4
		C392.1,328.2,392.4,329,392.8,329.3z"/>
</g>
<path class="st21" d="M307.1,412.7c-1.5,0-3-0.4-4.3-1.2l-5.9-3.5c-0.3-0.2-0.4-0.6-0.2-0.9c0.2-0.3,0.6-0.4,0.9-0.2l5.9,3.5
	c2.3,1.4,5,1.4,7.3,0c2.3-1.4,3.5-3.8,3.4-6.5L314,402c-2.1-29-5.9-82.9,16.8-88.7c7.8-2,13.2-3.9,17.1-5.3
	c11.7-4.2,12.5-3.9,28.5,8.2c0.3,0.2,0.3,0.6,0.1,0.9c-0.2,0.3-0.6,0.4-0.9,0.1c-16-12.1-16.2-12-27.3-8c-3.9,1.4-9.3,3.3-17.2,5.4
	c-21.6,5.5-17.9,58.7-15.8,87.3l0.1,1.8c0.2,3.2-1.3,6.1-4,7.7C310.1,412.3,308.6,412.7,307.1,412.7z"/>
<ellipse class="st2" cx="351.6" cy="411" rx="21.5" ry="12.4"/>
<path class="st3" d="M361.9,405.7c1.2,0.5,2,1.9,1.9,3.3c0,0.7-0.1,1.3-0.3,1.6c-0.4,0.8-1.6,1.9-3.7,1.1c-2-0.8-6.5-5-6.7-7.8
	C352.9,398.9,358.7,404.3,361.9,405.7z"/>
<path class="st3" d="M350.1,414.2c0,0,0.5,2.9,0.2,3.5c-0.2,0.5-1.6,1.7-3.7,1.4c-2.1-0.2-8-2.3-9.4-6.2c-2.1-6.1,11.5,0.5,11.5,0.5
	L350.1,414.2z"/>
<path class="st0" d="M344.2,367l-0.5,46c0,1.6,1.1,3,2.5,3.2c0.2,0,0.4,0.1,0.6,0.1c1.4,0.1,2.3-0.5,2.7-1.1
	c0.4-0.5,0.6-1.2,0.6-1.9l0.6-19.6l2.9-17.6l4.1,31.1c0.1,0.8,0.5,1.6,1.1,2c0.4,0.3,1.1,0.5,1.8,0.5c1.2,0,2-0.7,2.5-1.2
	c0.4-0.4,0.6-1,0.6-1.7l-1.6-18.7l-0.6-23.9L344.2,367z"/>
<path class="st4" d="M350.2,325.8l0.7,4.2c0,0,0,1.4-1.6,1.8c-1.6,0.4-2.1-0.6-2.1-0.6l-0.7-4.7L350.2,325.8z"/>
<path class="st4" d="M341.7,326c2.7,2.7,6.7,2.9,9.1,0.5c2.4-2.4,2.1-6.5-0.6-9.1c-2.7-2.7-6.7-2.9-9.1-0.5
	C338.7,319.2,339,323.3,341.7,326z"/>
<path class="st5" d="M350,330.1c0.1,0,6.8-4.3,9.2,0.2c4,7.3,3.8,30.9,2.5,34c-1.2,2.8-4.1,4.9-6.2,6.1c-1.8,1-3.9,1.7-6,1.7
	c-2.1,0-6.1-1.8-5.9-4.6c0.7-12.5-0.4-23.1-1.5-33.3C342.2,334.1,343.5,332.7,350,330.1z"/>
<path class="st8" d="M353.7,376.1l4.1,31.1c0.1,0.8,0.5,1.6,1.1,2c0.1,0.1,0.2,0.1,0.3,0.2c-0.8-0.6-3.3-26.7-3.8-29.6
	C355,376.9,353.7,376.1,353.7,376.1z"/>
<polygon class="st4" points="328.7,331.5 325.1,319.6 327,318.8 331.2,328.1 "/>
<polygon class="st4" points="365.2,322.1 362.5,309.8 360.3,309.8 361.1,320.1 "/>
<path class="st5" d="M342.2,334.1c0,0-6.5,1.3-10.6-6.3c-0.4-0.7-1.3-0.8-1.7-0.2c-0.7,1-1.5,2.6-1.1,4.2c2,7.4,13,9,14.9,13.3
	C345.7,349.5,342.2,334.1,342.2,334.1z"/>
<path class="st5" d="M354.2,328.6c0,0,5.2,0.4,5.9-4.1c0.4-2.3,0.5-3.7,0.5-4.5c0-0.5,0.5-0.9,1-0.9c1.2,0.2,3.1,0.5,3.4,1.3
	c0.4,1.2,1.1,7.3-4,16.6C357.8,343.2,354.2,328.6,354.2,328.6z"/>
<path class="st4" d="M362.5,309.8l0-1.4c0-0.5-0.2-1-0.4-1.4l-1.4-2.3l-0.4-0.5c-0.3-0.4-1-0.5-1.4-0.2l-0.3,0.2
	c-0.4,0.3-0.7,0.7-0.6,1.2l0.7,2l-0.9-0.2c-0.2,0-0.4,0.1-0.4,0.3l0,0c0,0.2,0.1,0.3,0.2,0.4l1.5,0.6l1.4,2L362.5,309.8z"/>
<path class="st4" d="M325,319.7l-0.4-1.3c-0.2-0.5-0.2-1-0.1-1.5l0.5-2.7l0.2-0.6c0.2-0.5,0.7-0.8,1.3-0.7l0.4,0.1
	c0.5,0.1,0.9,0.5,1,0.9l0,2.1l0.8-0.5c0.2-0.1,0.4,0,0.5,0.1l0,0c0.1,0.1,0.1,0.3-0.1,0.4l-1.2,1.1l-0.7,2.6L325,319.7z"/>
<path class="st5" d="M345.3,343.1c0.6,2.7-1.1,23.7,4.3,28.9c-2.1,0-6.1-1.8-5.9-4.6c0.4-8.4,0.1-15.9-0.5-23c-2.1-2.8-8-4.5-11.6-8
	C331.8,336.5,344.7,340.4,345.3,343.1z"/>
<path class="st6" d="M352.4,328.9l-0.9-1c0,0-1.5,1.6-2.7,1.8c0,0-1.5,0.4-2.2,0.5l-0.6,1.6C345.9,331.9,350.8,331.6,352.4,328.9z"
	/>
<path d="M345.6,324.1c-0.2,0.1-0.5,0.1-0.7,0c-0.4-0.2-1-1.8-1.9-1.7c-1.3,0.2-3.1,2.9-5.4-0.9c-1.2-2-0.5-3-1.1-4.1
	c0,0,0.2,0.6,5.2-2.5s9.1,0.7,10.4,2.8c1.3,2.1,2.1,6.3-1.2,8.7c-0.5,0.4-4.1-0.3-4.1-0.6c-0.1-0.3,0.9-0.8,0.3-1.5
	C346.7,323.8,346.2,323.8,345.6,324.1z"/>
<polygon class="st19" points="115.9,310.4 127.8,327.2 139.9,324.5 127.5,328.5 "/>
<polygon class="st19" points="129.2,327.7 130.2,327.4 139.8,343.9 "/>
<polygon class="st19" points="126.7,326.7 116,330.3 126.1,325.8 "/>
<g>
	<path class="st18" d="M121.3,311.9c0-3.7-2.6-8.3-5.9-10.1c-1.6-0.9-3-1-4.1-0.5l0,0l-0.1,0c0,0,0,0,0,0l-2,1.2l1-0.1
		c-0.4,0.7-0.6,1.6-0.6,2.7c0,3.7,2.6,8.3,5.9,10.1c0.9,0.5,1.7,0.7,2.4,0.8c-0.1,0.3-0.4,0.9-0.4,0.9l2.1-1.2c0,0,0.1,0,0.1-0.1
		l0.1-0.1c0,0,0,0,0,0C120.7,314.9,121.3,313.6,121.3,311.9z"/>
	<path class="st1" d="M119.2,313.1c0,3.7-2.6,5.2-5.9,3.4c-3.2-1.9-5.9-6.4-5.9-10.1c0-3.7,2.6-5.2,5.9-3.4
		C116.6,304.8,119.2,309.4,119.2,313.1z"/>
</g>
<g>
	<path class="st6" d="M113.2,313.4c-0.3-0.2-0.6-0.4-0.8-0.6c-0.2-0.2-0.4-0.5-0.5-0.7c-0.1-0.3-0.2-0.6-0.3-0.8
		c0-0.3-0.1-0.6-0.1-1l1.1,0.6c0,0.2,0,0.4,0,0.5c0,0.1,0,0.3,0.1,0.4c0,0.1,0.1,0.3,0.2,0.4c0.1,0.1,0.2,0.2,0.3,0.3
		c0.1,0,0.2,0.1,0.2,0.1c0.1,0,0.1,0,0.2,0c0,0,0.1-0.1,0.1-0.1c0-0.1,0-0.1,0.1-0.2c0-0.1,0-0.2,0-0.3c0-0.1,0-0.2,0-0.3
		c0-0.1,0-0.2,0-0.4c0-0.2,0-0.3,0-0.5c0-0.1,0-0.3,0-0.4c0-0.1-0.1-0.3-0.1-0.4c0-0.1-0.1-0.2-0.2-0.3c-0.1-0.1-0.2-0.2-0.3-0.2
		c-0.2-0.1-0.3-0.1-0.4,0c-0.1,0.1-0.2,0.2-0.2,0.3l-0.9-0.5l0-4.1l2.9,1.7v1.2l-2-1.1l-0.1,1.7c0.1-0.1,0.2-0.1,0.4-0.1
		c0.2,0,0.3,0.1,0.5,0.2c0.2,0.1,0.5,0.3,0.7,0.5c0.2,0.2,0.3,0.4,0.4,0.7c0.1,0.3,0.2,0.6,0.2,0.9c0.1,0.3,0.1,0.6,0.1,1
		c0,0.3,0,0.6,0,0.9c0,0.2-0.1,0.5-0.2,0.7c-0.1,0.2-0.2,0.3-0.3,0.4c-0.1,0.1-0.3,0.1-0.5,0.1C113.7,313.7,113.5,313.6,113.2,313.4
		z"/>
</g>
<path class="st1" d="M243.1,149.7c-5.7,0-10.4-4.7-10.4-10.4c0-5.7,4.7-10.4,10.4-10.4c5.7,0,10.4,4.7,10.4,10.4
	C253.5,145.1,248.9,149.7,243.1,149.7z M243.1,131.2c-4.5,0-8.1,3.6-8.1,8.1c0,4.5,3.6,8.1,8.1,8.1c4.5,0,8.1-3.6,8.1-8.1
	C251.3,134.9,247.6,131.2,243.1,131.2z"/>
<path class="st0" d="M208.7,403.9c-4.1,0-7.4-3.3-7.4-7.4c0-4.1,3.3-7.4,7.4-7.4c4.1,0,7.4,3.3,7.4,7.4
	C216.1,400.6,212.8,403.9,208.7,403.9z M208.7,391.4c-2.8,0-5.1,2.3-5.1,5.1c0,2.8,2.3,5.1,5.1,5.1c2.8,0,5.1-2.3,5.1-5.1
	C213.8,393.7,211.5,391.4,208.7,391.4z"/>
<path class="st1" d="M274.5,96.2l-5-10.2l10.2-5l5,10.2L274.5,96.2z M272.5,87.1l3,6.1l6.1-3l-3-6.1L272.5,87.1z"/>
<g>
	
		<rect x="445.7" y="89" transform="matrix(0.7071 -0.7071 0.7071 0.7071 68.3624 345.3672)" class="st11" width="10.8" height="2.3"/>
	
		<rect x="449.9" y="84.8" transform="matrix(0.7071 -0.7071 0.7071 0.7071 68.3545 345.3553)" class="st11" width="2.3" height="10.8"/>
</g>
<circle class="st0" cx="233.9" cy="146.2" r="7.5"/>
<path class="st0" d="M138.6,256.4c0,3-2.5,5.5-5.5,5.5c-3,0-5.5-2.5-5.5-5.5c0-3,2.5-5.5,5.5-5.5
	C136.1,250.9,138.6,253.4,138.6,256.4z"/>
<path class="st1" d="M200.8,406.9c0,2.4-2,4.4-4.4,4.4c-2.4,0-4.4-2-4.4-4.4c0-2.4,2-4.4,4.4-4.4
	C198.8,402.5,200.8,404.5,200.8,406.9z"/>
<g>
	<g>
		<path class="st11" d="M535.7,239.3c-0.5,1.3-1.9,2-3.2,1.5c-1.3-0.5-2-1.9-1.5-3.2c0.5-1.3,1.9-2,3.2-1.5
			C535.6,236.5,536.2,238,535.7,239.3z"/>
	</g>
	
		<rect x="517.1" y="218.5" transform="matrix(0.9357 0.3528 -0.3528 0.9357 112.5074 -169.9081)" class="st0" width="10.5" height="10.5"/>
</g>
</svg>
